<mxfile host="Electron" agent="Mozilla/5.0 (Windows NT 10.0; Win64; x64) AppleWebKit/537.36 (KHTML, like Gecko) draw.io/28.0.4 Chrome/138.0.7204.97 Electron/37.2.1 Safari/537.36" version="28.0.4" pages="2">
  <diagram name="第 1 页" id="qo364xQjMS1kxWEwH2uj">
    <mxGraphModel dx="2929" dy="1693" grid="1" gridSize="10" guides="1" tooltips="1" connect="1" arrows="1" fold="1" page="1" pageScale="1" pageWidth="827" pageHeight="1169" math="0" shadow="0">
      <root>
        <mxCell id="0" />
        <mxCell id="1" parent="0" />
        <mxCell id="5ZmSQShtgP_7YSfKhpD3-1" value="&lt;&lt;interface&gt;&gt;&#xa;WorkflowGenerator" style="swimlane;fontStyle=1;align=center;verticalAlign=top;childLayout=stackLayout;horizontal=1;startSize=71;horizontalStack=0;resizeParent=1;resizeParentMax=0;resizeLast=0;collapsible=0;marginBottom=0;" vertex="1" parent="1">
          <mxGeometry x="167" y="30" width="702" height="126" as="geometry" />
        </mxCell>
        <mxCell id="5ZmSQShtgP_7YSfKhpD3-2" style="line;strokeWidth=1;fillColor=none;align=left;verticalAlign=middle;spacingTop=-1;spacingLeft=3;spacingRight=3;rotatable=0;labelPosition=right;points=[];portConstraint=eastwest;strokeColor=inherit;" vertex="1" parent="5ZmSQShtgP_7YSfKhpD3-1">
          <mxGeometry y="71" width="702" height="8" as="geometry" />
        </mxCell>
        <mxCell id="5ZmSQShtgP_7YSfKhpD3-3" value="+generateWorkflow(List&lt;TaskDTO&lt;, List&gt;TaskRelationshipDTO&gt;) : WorkflowDefinition" style="text;strokeColor=none;fillColor=none;align=left;verticalAlign=top;spacingLeft=4;spacingRight=4;overflow=hidden;rotatable=0;points=[[0,0.5],[1,0.5]];portConstraint=eastwest;" vertex="1" parent="5ZmSQShtgP_7YSfKhpD3-1">
          <mxGeometry y="79" width="702" height="47" as="geometry" />
        </mxCell>
        <mxCell id="5ZmSQShtgP_7YSfKhpD3-4" value="FlowableWorkflowGenerator" style="swimlane;fontStyle=1;align=center;verticalAlign=top;childLayout=stackLayout;horizontal=1;startSize=34.666666666666664;horizontalStack=0;resizeParent=1;resizeParentMax=0;resizeLast=0;collapsible=0;marginBottom=0;" vertex="1" parent="1">
          <mxGeometry x="150" y="290" width="736" height="217.66666666666666" as="geometry" />
        </mxCell>
        <mxCell id="5ZmSQShtgP_7YSfKhpD3-5" value="-RepositoryService repositoryService" style="text;strokeColor=none;fillColor=none;align=left;verticalAlign=top;spacingLeft=4;spacingRight=4;overflow=hidden;rotatable=0;points=[[0,0.5],[1,0.5]];portConstraint=eastwest;" vertex="1" parent="5ZmSQShtgP_7YSfKhpD3-4">
          <mxGeometry y="34.666666666666664" width="736" height="35" as="geometry" />
        </mxCell>
        <mxCell id="5ZmSQShtgP_7YSfKhpD3-6" value="-RuntimeService runtimeService" style="text;strokeColor=none;fillColor=none;align=left;verticalAlign=top;spacingLeft=4;spacingRight=4;overflow=hidden;rotatable=0;points=[[0,0.5],[1,0.5]];portConstraint=eastwest;" vertex="1" parent="5ZmSQShtgP_7YSfKhpD3-4">
          <mxGeometry y="69.66666666666666" width="736" height="35" as="geometry" />
        </mxCell>
        <mxCell id="5ZmSQShtgP_7YSfKhpD3-7" style="line;strokeWidth=1;fillColor=none;align=left;verticalAlign=middle;spacingTop=-1;spacingLeft=3;spacingRight=3;rotatable=0;labelPosition=right;points=[];portConstraint=eastwest;strokeColor=inherit;" vertex="1" parent="5ZmSQShtgP_7YSfKhpD3-4">
          <mxGeometry y="104.66666666666666" width="736" height="8" as="geometry" />
        </mxCell>
        <mxCell id="5ZmSQShtgP_7YSfKhpD3-8" value="+generateWorkflow(List&lt;TaskDTO&lt;, List&gt;TaskRelationshipDTO&gt;) : WorkflowDefinition" style="text;strokeColor=none;fillColor=none;align=left;verticalAlign=top;spacingLeft=4;spacingRight=4;overflow=hidden;rotatable=0;points=[[0,0.5],[1,0.5]];portConstraint=eastwest;" vertex="1" parent="5ZmSQShtgP_7YSfKhpD3-4">
          <mxGeometry y="112.66666666666666" width="736" height="35" as="geometry" />
        </mxCell>
        <mxCell id="5ZmSQShtgP_7YSfKhpD3-9" value="-createBpmnModel(List&lt;TaskDTO&lt;, List&gt;TaskRelationshipDTO&gt;) : BpmnModel" style="text;strokeColor=none;fillColor=none;align=left;verticalAlign=top;spacingLeft=4;spacingRight=4;overflow=hidden;rotatable=0;points=[[0,0.5],[1,0.5]];portConstraint=eastwest;" vertex="1" parent="5ZmSQShtgP_7YSfKhpD3-4">
          <mxGeometry y="147.66666666666666" width="736" height="35" as="geometry" />
        </mxCell>
        <mxCell id="5ZmSQShtgP_7YSfKhpD3-10" value="-deployWorkflow(BpmnModel) : Deployment" style="text;strokeColor=none;fillColor=none;align=left;verticalAlign=top;spacingLeft=4;spacingRight=4;overflow=hidden;rotatable=0;points=[[0,0.5],[1,0.5]];portConstraint=eastwest;" vertex="1" parent="5ZmSQShtgP_7YSfKhpD3-4">
          <mxGeometry y="182.66666666666666" width="736" height="35" as="geometry" />
        </mxCell>
        <mxCell id="5ZmSQShtgP_7YSfKhpD3-11" value="&lt;&lt;interface&gt;&gt;&#xa;RepositoryService" style="swimlane;fontStyle=1;align=center;verticalAlign=top;childLayout=stackLayout;horizontal=1;startSize=53.5;horizontalStack=0;resizeParent=1;resizeParentMax=0;resizeLast=0;collapsible=0;marginBottom=0;" vertex="1" parent="1">
          <mxGeometry x="220" y="825" width="505" height="205.5" as="geometry" />
        </mxCell>
        <mxCell id="5ZmSQShtgP_7YSfKhpD3-12" style="line;strokeWidth=1;fillColor=none;align=left;verticalAlign=middle;spacingTop=-1;spacingLeft=3;spacingRight=3;rotatable=0;labelPosition=right;points=[];portConstraint=eastwest;strokeColor=inherit;" vertex="1" parent="5ZmSQShtgP_7YSfKhpD3-11">
          <mxGeometry y="53.5" width="505" height="8" as="geometry" />
        </mxCell>
        <mxCell id="5ZmSQShtgP_7YSfKhpD3-13" value="+createDeployment() : DeploymentBuilder" style="text;strokeColor=none;fillColor=none;align=left;verticalAlign=top;spacingLeft=4;spacingRight=4;overflow=hidden;rotatable=0;points=[[0,0.5],[1,0.5]];portConstraint=eastwest;" vertex="1" parent="5ZmSQShtgP_7YSfKhpD3-11">
          <mxGeometry y="61.5" width="505" height="36" as="geometry" />
        </mxCell>
        <mxCell id="5ZmSQShtgP_7YSfKhpD3-14" value="+createProcessDefinitionQuery() : ProcessDefinitionQuery" style="text;strokeColor=none;fillColor=none;align=left;verticalAlign=top;spacingLeft=4;spacingRight=4;overflow=hidden;rotatable=0;points=[[0,0.5],[1,0.5]];portConstraint=eastwest;" vertex="1" parent="5ZmSQShtgP_7YSfKhpD3-11">
          <mxGeometry y="97.5" width="505" height="36" as="geometry" />
        </mxCell>
        <mxCell id="5ZmSQShtgP_7YSfKhpD3-15" value="+getProcessDefinition(String) : ProcessDefinition" style="text;strokeColor=none;fillColor=none;align=left;verticalAlign=top;spacingLeft=4;spacingRight=4;overflow=hidden;rotatable=0;points=[[0,0.5],[1,0.5]];portConstraint=eastwest;" vertex="1" parent="5ZmSQShtgP_7YSfKhpD3-11">
          <mxGeometry y="133.5" width="505" height="36" as="geometry" />
        </mxCell>
        <mxCell id="5ZmSQShtgP_7YSfKhpD3-16" value="+getBpmnModel(String) : BpmnModel" style="text;strokeColor=none;fillColor=none;align=left;verticalAlign=top;spacingLeft=4;spacingRight=4;overflow=hidden;rotatable=0;points=[[0,0.5],[1,0.5]];portConstraint=eastwest;" vertex="1" parent="5ZmSQShtgP_7YSfKhpD3-11">
          <mxGeometry y="169.5" width="505" height="36" as="geometry" />
        </mxCell>
        <mxCell id="5ZmSQShtgP_7YSfKhpD3-17" value="&lt;&lt;interface&gt;&gt;&#xa;RuntimeService" style="swimlane;fontStyle=1;align=center;verticalAlign=top;childLayout=stackLayout;horizontal=1;startSize=53.5;horizontalStack=0;resizeParent=1;resizeParentMax=0;resizeLast=0;collapsible=0;marginBottom=0;" vertex="1" parent="1">
          <mxGeometry x="1025" y="825" width="553" height="205.5" as="geometry" />
        </mxCell>
        <mxCell id="5ZmSQShtgP_7YSfKhpD3-18" style="line;strokeWidth=1;fillColor=none;align=left;verticalAlign=middle;spacingTop=-1;spacingLeft=3;spacingRight=3;rotatable=0;labelPosition=right;points=[];portConstraint=eastwest;strokeColor=inherit;" vertex="1" parent="5ZmSQShtgP_7YSfKhpD3-17">
          <mxGeometry y="53.5" width="553" height="8" as="geometry" />
        </mxCell>
        <mxCell id="5ZmSQShtgP_7YSfKhpD3-19" value="+startProcessInstanceByKey(String, String, Map) : ProcessInstance" style="text;strokeColor=none;fillColor=none;align=left;verticalAlign=top;spacingLeft=4;spacingRight=4;overflow=hidden;rotatable=0;points=[[0,0.5],[1,0.5]];portConstraint=eastwest;" vertex="1" parent="5ZmSQShtgP_7YSfKhpD3-17">
          <mxGeometry y="61.5" width="553" height="36" as="geometry" />
        </mxCell>
        <mxCell id="5ZmSQShtgP_7YSfKhpD3-20" value="+setVariable(String, String, Object) : void" style="text;strokeColor=none;fillColor=none;align=left;verticalAlign=top;spacingLeft=4;spacingRight=4;overflow=hidden;rotatable=0;points=[[0,0.5],[1,0.5]];portConstraint=eastwest;" vertex="1" parent="5ZmSQShtgP_7YSfKhpD3-17">
          <mxGeometry y="97.5" width="553" height="36" as="geometry" />
        </mxCell>
        <mxCell id="5ZmSQShtgP_7YSfKhpD3-21" value="+getVariable(String, String) : Object" style="text;strokeColor=none;fillColor=none;align=left;verticalAlign=top;spacingLeft=4;spacingRight=4;overflow=hidden;rotatable=0;points=[[0,0.5],[1,0.5]];portConstraint=eastwest;" vertex="1" parent="5ZmSQShtgP_7YSfKhpD3-17">
          <mxGeometry y="133.5" width="553" height="36" as="geometry" />
        </mxCell>
        <mxCell id="5ZmSQShtgP_7YSfKhpD3-22" value="+signalEventReceived(String, String) : void" style="text;strokeColor=none;fillColor=none;align=left;verticalAlign=top;spacingLeft=4;spacingRight=4;overflow=hidden;rotatable=0;points=[[0,0.5],[1,0.5]];portConstraint=eastwest;" vertex="1" parent="5ZmSQShtgP_7YSfKhpD3-17">
          <mxGeometry y="169.5" width="553" height="36" as="geometry" />
        </mxCell>
        <mxCell id="5ZmSQShtgP_7YSfKhpD3-23" value="&lt;&lt;interface&gt;&gt;&#xa;TaskService" style="swimlane;fontStyle=1;align=center;verticalAlign=top;childLayout=stackLayout;horizontal=1;startSize=53.5;horizontalStack=0;resizeParent=1;resizeParentMax=0;resizeLast=0;collapsible=0;marginBottom=0;" vertex="1" parent="1">
          <mxGeometry x="1810" y="715" width="295" height="205.5" as="geometry" />
        </mxCell>
        <mxCell id="5ZmSQShtgP_7YSfKhpD3-24" style="line;strokeWidth=1;fillColor=none;align=left;verticalAlign=middle;spacingTop=-1;spacingLeft=3;spacingRight=3;rotatable=0;labelPosition=right;points=[];portConstraint=eastwest;strokeColor=inherit;" vertex="1" parent="5ZmSQShtgP_7YSfKhpD3-23">
          <mxGeometry y="53.5" width="295" height="8" as="geometry" />
        </mxCell>
        <mxCell id="5ZmSQShtgP_7YSfKhpD3-25" value="+createTaskQuery() : TaskQuery" style="text;strokeColor=none;fillColor=none;align=left;verticalAlign=top;spacingLeft=4;spacingRight=4;overflow=hidden;rotatable=0;points=[[0,0.5],[1,0.5]];portConstraint=eastwest;" vertex="1" parent="5ZmSQShtgP_7YSfKhpD3-23">
          <mxGeometry y="61.5" width="295" height="36" as="geometry" />
        </mxCell>
        <mxCell id="5ZmSQShtgP_7YSfKhpD3-26" value="+complete(String, Map) : void" style="text;strokeColor=none;fillColor=none;align=left;verticalAlign=top;spacingLeft=4;spacingRight=4;overflow=hidden;rotatable=0;points=[[0,0.5],[1,0.5]];portConstraint=eastwest;" vertex="1" parent="5ZmSQShtgP_7YSfKhpD3-23">
          <mxGeometry y="97.5" width="295" height="36" as="geometry" />
        </mxCell>
        <mxCell id="5ZmSQShtgP_7YSfKhpD3-27" value="+claim(String, String) : void" style="text;strokeColor=none;fillColor=none;align=left;verticalAlign=top;spacingLeft=4;spacingRight=4;overflow=hidden;rotatable=0;points=[[0,0.5],[1,0.5]];portConstraint=eastwest;" vertex="1" parent="5ZmSQShtgP_7YSfKhpD3-23">
          <mxGeometry y="133.5" width="295" height="36" as="geometry" />
        </mxCell>
        <mxCell id="5ZmSQShtgP_7YSfKhpD3-28" value="+getVariables(String) : Map" style="text;strokeColor=none;fillColor=none;align=left;verticalAlign=top;spacingLeft=4;spacingRight=4;overflow=hidden;rotatable=0;points=[[0,0.5],[1,0.5]];portConstraint=eastwest;" vertex="1" parent="5ZmSQShtgP_7YSfKhpD3-23">
          <mxGeometry y="169.5" width="295" height="36" as="geometry" />
        </mxCell>
        <mxCell id="5ZmSQShtgP_7YSfKhpD3-29" value="&lt;&lt;interface&gt;&gt;&#xa;HistoryService" style="swimlane;fontStyle=1;align=center;verticalAlign=top;childLayout=stackLayout;horizontal=1;startSize=57;horizontalStack=0;resizeParent=1;resizeParentMax=0;resizeLast=0;collapsible=0;marginBottom=0;" vertex="1" parent="1">
          <mxGeometry x="1075" y="45" width="591" height="179" as="geometry" />
        </mxCell>
        <mxCell id="5ZmSQShtgP_7YSfKhpD3-30" style="line;strokeWidth=1;fillColor=none;align=left;verticalAlign=middle;spacingTop=-1;spacingLeft=3;spacingRight=3;rotatable=0;labelPosition=right;points=[];portConstraint=eastwest;strokeColor=inherit;" vertex="1" parent="5ZmSQShtgP_7YSfKhpD3-29">
          <mxGeometry y="57" width="591" height="8" as="geometry" />
        </mxCell>
        <mxCell id="5ZmSQShtgP_7YSfKhpD3-31" value="+createHistoricTaskInstanceQuery() : HistoricTaskInstanceQuery" style="text;strokeColor=none;fillColor=none;align=left;verticalAlign=top;spacingLeft=4;spacingRight=4;overflow=hidden;rotatable=0;points=[[0,0.5],[1,0.5]];portConstraint=eastwest;" vertex="1" parent="5ZmSQShtgP_7YSfKhpD3-29">
          <mxGeometry y="65" width="591" height="38" as="geometry" />
        </mxCell>
        <mxCell id="5ZmSQShtgP_7YSfKhpD3-32" value="+createHistoricProcessInstanceQuery() : HistoricProcessInstanceQuery" style="text;strokeColor=none;fillColor=none;align=left;verticalAlign=top;spacingLeft=4;spacingRight=4;overflow=hidden;rotatable=0;points=[[0,0.5],[1,0.5]];portConstraint=eastwest;" vertex="1" parent="5ZmSQShtgP_7YSfKhpD3-29">
          <mxGeometry y="103" width="591" height="38" as="geometry" />
        </mxCell>
        <mxCell id="5ZmSQShtgP_7YSfKhpD3-33" value="+createHistoricVariableInstanceQuery() : HistoricVariableInstanceQuery" style="text;strokeColor=none;fillColor=none;align=left;verticalAlign=top;spacingLeft=4;spacingRight=4;overflow=hidden;rotatable=0;points=[[0,0.5],[1,0.5]];portConstraint=eastwest;" vertex="1" parent="5ZmSQShtgP_7YSfKhpD3-29">
          <mxGeometry y="141" width="591" height="38" as="geometry" />
        </mxCell>
        <mxCell id="5ZmSQShtgP_7YSfKhpD3-47" value="TaskCompletionAction" style="swimlane;fontStyle=1;align=center;verticalAlign=top;childLayout=stackLayout;horizontal=1;startSize=45.333333333333336;horizontalStack=0;resizeParent=1;resizeParentMax=0;resizeLast=0;collapsible=0;marginBottom=0;" vertex="1" parent="1">
          <mxGeometry x="2207.5" y="45" width="384" height="143.33333333333334" as="geometry" />
        </mxCell>
        <mxCell id="5ZmSQShtgP_7YSfKhpD3-48" value="-TaskWorkflowService workflowService" style="text;strokeColor=none;fillColor=none;align=left;verticalAlign=top;spacingLeft=4;spacingRight=4;overflow=hidden;rotatable=0;points=[[0,0.5],[1,0.5]];portConstraint=eastwest;" vertex="1" parent="5ZmSQShtgP_7YSfKhpD3-47">
          <mxGeometry y="45.333333333333336" width="384" height="45" as="geometry" />
        </mxCell>
        <mxCell id="5ZmSQShtgP_7YSfKhpD3-49" style="line;strokeWidth=1;fillColor=none;align=left;verticalAlign=middle;spacingTop=-1;spacingLeft=3;spacingRight=3;rotatable=0;labelPosition=right;points=[];portConstraint=eastwest;strokeColor=inherit;" vertex="1" parent="5ZmSQShtgP_7YSfKhpD3-47">
          <mxGeometry y="90.33333333333334" width="384" height="8" as="geometry" />
        </mxCell>
        <mxCell id="5ZmSQShtgP_7YSfKhpD3-50" value="+execute(StateContext) : void" style="text;strokeColor=none;fillColor=none;align=left;verticalAlign=top;spacingLeft=4;spacingRight=4;overflow=hidden;rotatable=0;points=[[0,0.5],[1,0.5]];portConstraint=eastwest;" vertex="1" parent="5ZmSQShtgP_7YSfKhpD3-47">
          <mxGeometry y="98.33333333333334" width="384" height="45" as="geometry" />
        </mxCell>
        <mxCell id="5ZmSQShtgP_7YSfKhpD3-79" value="TaskWorkflowService" style="swimlane;fontStyle=1;align=center;verticalAlign=top;childLayout=stackLayout;horizontal=1;startSize=32;horizontalStack=0;resizeParent=1;resizeParentMax=0;resizeLast=0;collapsible=0;marginBottom=0;" vertex="1" parent="1">
          <mxGeometry x="2160" y="266.83000000000004" width="479" height="264" as="geometry" />
        </mxCell>
        <mxCell id="5ZmSQShtgP_7YSfKhpD3-80" value="-RuntimeService runtimeService" style="text;strokeColor=none;fillColor=none;align=left;verticalAlign=top;spacingLeft=4;spacingRight=4;overflow=hidden;rotatable=0;points=[[0,0.5],[1,0.5]];portConstraint=eastwest;" vertex="1" parent="5ZmSQShtgP_7YSfKhpD3-79">
          <mxGeometry y="32" width="479" height="32" as="geometry" />
        </mxCell>
        <mxCell id="5ZmSQShtgP_7YSfKhpD3-81" value="-TaskService taskService" style="text;strokeColor=none;fillColor=none;align=left;verticalAlign=top;spacingLeft=4;spacingRight=4;overflow=hidden;rotatable=0;points=[[0,0.5],[1,0.5]];portConstraint=eastwest;" vertex="1" parent="5ZmSQShtgP_7YSfKhpD3-79">
          <mxGeometry y="64" width="479" height="32" as="geometry" />
        </mxCell>
        <mxCell id="5ZmSQShtgP_7YSfKhpD3-82" value="-ExperimentWorkflowRepository workflowRepository" style="text;strokeColor=none;fillColor=none;align=left;verticalAlign=top;spacingLeft=4;spacingRight=4;overflow=hidden;rotatable=0;points=[[0,0.5],[1,0.5]];portConstraint=eastwest;" vertex="1" parent="5ZmSQShtgP_7YSfKhpD3-79">
          <mxGeometry y="96" width="479" height="32" as="geometry" />
        </mxCell>
        <mxCell id="5ZmSQShtgP_7YSfKhpD3-83" style="line;strokeWidth=1;fillColor=none;align=left;verticalAlign=middle;spacingTop=-1;spacingLeft=3;spacingRight=3;rotatable=0;labelPosition=right;points=[];portConstraint=eastwest;strokeColor=inherit;" vertex="1" parent="5ZmSQShtgP_7YSfKhpD3-79">
          <mxGeometry y="128" width="479" height="8" as="geometry" />
        </mxCell>
        <mxCell id="5ZmSQShtgP_7YSfKhpD3-84" value="+completeTask(String taskId, Map results) : void" style="text;strokeColor=none;fillColor=none;align=left;verticalAlign=top;spacingLeft=4;spacingRight=4;overflow=hidden;rotatable=0;points=[[0,0.5],[1,0.5]];portConstraint=eastwest;" vertex="1" parent="5ZmSQShtgP_7YSfKhpD3-79">
          <mxGeometry y="136" width="479" height="32" as="geometry" />
        </mxCell>
        <mxCell id="5ZmSQShtgP_7YSfKhpD3-85" value="+findAndStartReadyTasks(String workflowId) : void" style="text;strokeColor=none;fillColor=none;align=left;verticalAlign=top;spacingLeft=4;spacingRight=4;overflow=hidden;rotatable=0;points=[[0,0.5],[1,0.5]];portConstraint=eastwest;" vertex="1" parent="5ZmSQShtgP_7YSfKhpD3-79">
          <mxGeometry y="168" width="479" height="32" as="geometry" />
        </mxCell>
        <mxCell id="5ZmSQShtgP_7YSfKhpD3-86" value="+getTaskStatus(String taskId) : TaskStatus" style="text;strokeColor=none;fillColor=none;align=left;verticalAlign=top;spacingLeft=4;spacingRight=4;overflow=hidden;rotatable=0;points=[[0,0.5],[1,0.5]];portConstraint=eastwest;" vertex="1" parent="5ZmSQShtgP_7YSfKhpD3-79">
          <mxGeometry y="200" width="479" height="32" as="geometry" />
        </mxCell>
        <mxCell id="5ZmSQShtgP_7YSfKhpD3-87" value="-checkTaskDependencies(String taskId) : boolean" style="text;strokeColor=none;fillColor=none;align=left;verticalAlign=top;spacingLeft=4;spacingRight=4;overflow=hidden;rotatable=0;points=[[0,0.5],[1,0.5]];portConstraint=eastwest;" vertex="1" parent="5ZmSQShtgP_7YSfKhpD3-79">
          <mxGeometry y="232" width="479" height="32" as="geometry" />
        </mxCell>
        <mxCell id="5ZmSQShtgP_7YSfKhpD3-88" value="ExperimentWorkflow" style="swimlane;fontStyle=1;align=center;verticalAlign=top;childLayout=stackLayout;horizontal=1;startSize=34.666666666666664;horizontalStack=0;resizeParent=1;resizeParentMax=0;resizeLast=0;collapsible=0;marginBottom=0;" vertex="1" parent="1">
          <mxGeometry x="2658" y="586" width="380" height="217.66666666666666" as="geometry" />
        </mxCell>
        <mxCell id="5ZmSQShtgP_7YSfKhpD3-89" value="-String id" style="text;strokeColor=none;fillColor=none;align=left;verticalAlign=top;spacingLeft=4;spacingRight=4;overflow=hidden;rotatable=0;points=[[0,0.5],[1,0.5]];portConstraint=eastwest;" vertex="1" parent="5ZmSQShtgP_7YSfKhpD3-88">
          <mxGeometry y="34.666666666666664" width="380" height="35" as="geometry" />
        </mxCell>
        <mxCell id="5ZmSQShtgP_7YSfKhpD3-90" value="-String name" style="text;strokeColor=none;fillColor=none;align=left;verticalAlign=top;spacingLeft=4;spacingRight=4;overflow=hidden;rotatable=0;points=[[0,0.5],[1,0.5]];portConstraint=eastwest;" vertex="1" parent="5ZmSQShtgP_7YSfKhpD3-88">
          <mxGeometry y="69.66666666666666" width="380" height="35" as="geometry" />
        </mxCell>
        <mxCell id="5ZmSQShtgP_7YSfKhpD3-91" value="-List&lt;WorkflowTask&gt; tasks" style="text;strokeColor=none;fillColor=none;align=left;verticalAlign=top;spacingLeft=4;spacingRight=4;overflow=hidden;rotatable=0;points=[[0,0.5],[1,0.5]];portConstraint=eastwest;" vertex="1" parent="5ZmSQShtgP_7YSfKhpD3-88">
          <mxGeometry y="104.66666666666666" width="380" height="35" as="geometry" />
        </mxCell>
        <mxCell id="5ZmSQShtgP_7YSfKhpD3-92" value="-WorkflowStatus status" style="text;strokeColor=none;fillColor=none;align=left;verticalAlign=top;spacingLeft=4;spacingRight=4;overflow=hidden;rotatable=0;points=[[0,0.5],[1,0.5]];portConstraint=eastwest;" vertex="1" parent="5ZmSQShtgP_7YSfKhpD3-88">
          <mxGeometry y="139.66666666666666" width="380" height="35" as="geometry" />
        </mxCell>
        <mxCell id="5ZmSQShtgP_7YSfKhpD3-93" style="line;strokeWidth=1;fillColor=none;align=left;verticalAlign=middle;spacingTop=-1;spacingLeft=3;spacingRight=3;rotatable=0;labelPosition=right;points=[];portConstraint=eastwest;strokeColor=inherit;" vertex="1" parent="5ZmSQShtgP_7YSfKhpD3-88">
          <mxGeometry y="174.66666666666666" width="380" height="8" as="geometry" />
        </mxCell>
        <mxCell id="5ZmSQShtgP_7YSfKhpD3-94" value="+getReadyTasks() : List&lt;WorkflowTask&gt;" style="text;strokeColor=none;fillColor=none;align=left;verticalAlign=top;spacingLeft=4;spacingRight=4;overflow=hidden;rotatable=0;points=[[0,0.5],[1,0.5]];portConstraint=eastwest;" vertex="1" parent="5ZmSQShtgP_7YSfKhpD3-88">
          <mxGeometry y="182.66666666666666" width="380" height="35" as="geometry" />
        </mxCell>
        <mxCell id="5ZmSQShtgP_7YSfKhpD3-95" value="WorkflowTask" style="swimlane;fontStyle=1;align=center;verticalAlign=top;childLayout=stackLayout;horizontal=1;startSize=32;horizontalStack=0;resizeParent=1;resizeParentMax=0;resizeLast=0;collapsible=0;marginBottom=0;" vertex="1" parent="1">
          <mxGeometry x="2696" y="855" width="305" height="264" as="geometry" />
        </mxCell>
        <mxCell id="5ZmSQShtgP_7YSfKhpD3-96" value="-String id" style="text;strokeColor=none;fillColor=none;align=left;verticalAlign=top;spacingLeft=4;spacingRight=4;overflow=hidden;rotatable=0;points=[[0,0.5],[1,0.5]];portConstraint=eastwest;" vertex="1" parent="5ZmSQShtgP_7YSfKhpD3-95">
          <mxGeometry y="32" width="305" height="32" as="geometry" />
        </mxCell>
        <mxCell id="5ZmSQShtgP_7YSfKhpD3-97" value="-String name" style="text;strokeColor=none;fillColor=none;align=left;verticalAlign=top;spacingLeft=4;spacingRight=4;overflow=hidden;rotatable=0;points=[[0,0.5],[1,0.5]];portConstraint=eastwest;" vertex="1" parent="5ZmSQShtgP_7YSfKhpD3-95">
          <mxGeometry y="64" width="305" height="32" as="geometry" />
        </mxCell>
        <mxCell id="5ZmSQShtgP_7YSfKhpD3-98" value="-String assigneeId" style="text;strokeColor=none;fillColor=none;align=left;verticalAlign=top;spacingLeft=4;spacingRight=4;overflow=hidden;rotatable=0;points=[[0,0.5],[1,0.5]];portConstraint=eastwest;" vertex="1" parent="5ZmSQShtgP_7YSfKhpD3-95">
          <mxGeometry y="96" width="305" height="32" as="geometry" />
        </mxCell>
        <mxCell id="5ZmSQShtgP_7YSfKhpD3-99" value="-TaskStatus status" style="text;strokeColor=none;fillColor=none;align=left;verticalAlign=top;spacingLeft=4;spacingRight=4;overflow=hidden;rotatable=0;points=[[0,0.5],[1,0.5]];portConstraint=eastwest;" vertex="1" parent="5ZmSQShtgP_7YSfKhpD3-95">
          <mxGeometry y="128" width="305" height="32" as="geometry" />
        </mxCell>
        <mxCell id="5ZmSQShtgP_7YSfKhpD3-100" value="-Set&lt;String&gt; prerequisiteTaskIds" style="text;strokeColor=none;fillColor=none;align=left;verticalAlign=top;spacingLeft=4;spacingRight=4;overflow=hidden;rotatable=0;points=[[0,0.5],[1,0.5]];portConstraint=eastwest;" vertex="1" parent="5ZmSQShtgP_7YSfKhpD3-95">
          <mxGeometry y="160" width="305" height="32" as="geometry" />
        </mxCell>
        <mxCell id="5ZmSQShtgP_7YSfKhpD3-101" style="line;strokeWidth=1;fillColor=none;align=left;verticalAlign=middle;spacingTop=-1;spacingLeft=3;spacingRight=3;rotatable=0;labelPosition=right;points=[];portConstraint=eastwest;strokeColor=inherit;" vertex="1" parent="5ZmSQShtgP_7YSfKhpD3-95">
          <mxGeometry y="192" width="305" height="8" as="geometry" />
        </mxCell>
        <mxCell id="5ZmSQShtgP_7YSfKhpD3-102" value="+isReady() : boolean" style="text;strokeColor=none;fillColor=none;align=left;verticalAlign=top;spacingLeft=4;spacingRight=4;overflow=hidden;rotatable=0;points=[[0,0.5],[1,0.5]];portConstraint=eastwest;" vertex="1" parent="5ZmSQShtgP_7YSfKhpD3-95">
          <mxGeometry y="200" width="305" height="32" as="geometry" />
        </mxCell>
        <mxCell id="5ZmSQShtgP_7YSfKhpD3-103" value="+canStart() : boolean" style="text;strokeColor=none;fillColor=none;align=left;verticalAlign=top;spacingLeft=4;spacingRight=4;overflow=hidden;rotatable=0;points=[[0,0.5],[1,0.5]];portConstraint=eastwest;" vertex="1" parent="5ZmSQShtgP_7YSfKhpD3-95">
          <mxGeometry y="232" width="305" height="32" as="geometry" />
        </mxCell>
        <mxCell id="5ZmSQShtgP_7YSfKhpD3-115" value="FlowableConfig" style="swimlane;fontStyle=1;align=center;verticalAlign=top;childLayout=stackLayout;horizontal=1;startSize=30.823529411764707;horizontalStack=0;resizeParent=1;resizeParentMax=0;resizeLast=0;collapsible=0;marginBottom=0;" vertex="1" parent="1">
          <mxGeometry x="936" y="263" width="831" height="255.8235294117647" as="geometry" />
        </mxCell>
        <mxCell id="5ZmSQShtgP_7YSfKhpD3-116" style="line;strokeWidth=1;fillColor=none;align=left;verticalAlign=middle;spacingTop=-1;spacingLeft=3;spacingRight=3;rotatable=0;labelPosition=right;points=[];portConstraint=eastwest;strokeColor=inherit;" vertex="1" parent="5ZmSQShtgP_7YSfKhpD3-115">
          <mxGeometry y="30.823529411764707" width="831" height="8" as="geometry" />
        </mxCell>
        <mxCell id="5ZmSQShtgP_7YSfKhpD3-117" value="+springProcessEngineConfiguration(DataSource, TransactionManager) : SpringProcessEngineConfiguration" style="text;strokeColor=none;fillColor=none;align=left;verticalAlign=top;spacingLeft=4;spacingRight=4;overflow=hidden;rotatable=0;points=[[0,0.5],[1,0.5]];portConstraint=eastwest;" vertex="1" parent="5ZmSQShtgP_7YSfKhpD3-115">
          <mxGeometry y="38.82352941176471" width="831" height="31" as="geometry" />
        </mxCell>
        <mxCell id="5ZmSQShtgP_7YSfKhpD3-118" value="+processEngine(SpringProcessEngineConfiguration) : ProcessEngine" style="text;strokeColor=none;fillColor=none;align=left;verticalAlign=top;spacingLeft=4;spacingRight=4;overflow=hidden;rotatable=0;points=[[0,0.5],[1,0.5]];portConstraint=eastwest;" vertex="1" parent="5ZmSQShtgP_7YSfKhpD3-115">
          <mxGeometry y="69.82352941176471" width="831" height="31" as="geometry" />
        </mxCell>
        <mxCell id="5ZmSQShtgP_7YSfKhpD3-119" value="+repositoryService(ProcessEngine) : RepositoryService" style="text;strokeColor=none;fillColor=none;align=left;verticalAlign=top;spacingLeft=4;spacingRight=4;overflow=hidden;rotatable=0;points=[[0,0.5],[1,0.5]];portConstraint=eastwest;" vertex="1" parent="5ZmSQShtgP_7YSfKhpD3-115">
          <mxGeometry y="100.82352941176471" width="831" height="31" as="geometry" />
        </mxCell>
        <mxCell id="5ZmSQShtgP_7YSfKhpD3-120" value="+runtimeService(ProcessEngine) : RuntimeService" style="text;strokeColor=none;fillColor=none;align=left;verticalAlign=top;spacingLeft=4;spacingRight=4;overflow=hidden;rotatable=0;points=[[0,0.5],[1,0.5]];portConstraint=eastwest;" vertex="1" parent="5ZmSQShtgP_7YSfKhpD3-115">
          <mxGeometry y="131.8235294117647" width="831" height="31" as="geometry" />
        </mxCell>
        <mxCell id="5ZmSQShtgP_7YSfKhpD3-121" value="+taskService(ProcessEngine) : TaskService" style="text;strokeColor=none;fillColor=none;align=left;verticalAlign=top;spacingLeft=4;spacingRight=4;overflow=hidden;rotatable=0;points=[[0,0.5],[1,0.5]];portConstraint=eastwest;" vertex="1" parent="5ZmSQShtgP_7YSfKhpD3-115">
          <mxGeometry y="162.8235294117647" width="831" height="31" as="geometry" />
        </mxCell>
        <mxCell id="5ZmSQShtgP_7YSfKhpD3-122" value="+historyService(ProcessEngine) : HistoryService" style="text;strokeColor=none;fillColor=none;align=left;verticalAlign=top;spacingLeft=4;spacingRight=4;overflow=hidden;rotatable=0;points=[[0,0.5],[1,0.5]];portConstraint=eastwest;" vertex="1" parent="5ZmSQShtgP_7YSfKhpD3-115">
          <mxGeometry y="193.8235294117647" width="831" height="31" as="geometry" />
        </mxCell>
        <mxCell id="5ZmSQShtgP_7YSfKhpD3-123" value="+deployProcessDefinitions(RepositoryService) : InitializingBean" style="text;strokeColor=none;fillColor=none;align=left;verticalAlign=top;spacingLeft=4;spacingRight=4;overflow=hidden;rotatable=0;points=[[0,0.5],[1,0.5]];portConstraint=eastwest;" vertex="1" parent="5ZmSQShtgP_7YSfKhpD3-115">
          <mxGeometry y="224.8235294117647" width="831" height="31" as="geometry" />
        </mxCell>
        <mxCell id="5ZmSQShtgP_7YSfKhpD3-124" value="" style="curved=1;startArrow=block;startSize=16;startFill=0;endArrow=none;exitX=0.5;exitY=1;entryX=0.5;entryY=0;rounded=0;" edge="1" parent="1" source="5ZmSQShtgP_7YSfKhpD3-1" target="5ZmSQShtgP_7YSfKhpD3-4">
          <mxGeometry relative="1" as="geometry">
            <Array as="points" />
          </mxGeometry>
        </mxCell>
        <mxCell id="5ZmSQShtgP_7YSfKhpD3-125" value="" style="curved=1;startArrow=none;endArrow=open;endSize=12;exitX=0.48;exitY=1;entryX=0.48;entryY=0;rounded=0;" edge="1" parent="1" source="5ZmSQShtgP_7YSfKhpD3-4" target="5ZmSQShtgP_7YSfKhpD3-11">
          <mxGeometry relative="1" as="geometry">
            <Array as="points">
              <mxPoint x="498" y="558" />
            </Array>
          </mxGeometry>
        </mxCell>
        <mxCell id="5ZmSQShtgP_7YSfKhpD3-126" value="" style="curved=1;startArrow=none;endArrow=open;endSize=12;exitX=0.77;exitY=1;entryX=0.09;entryY=0;rounded=0;" edge="1" parent="1" source="5ZmSQShtgP_7YSfKhpD3-4" target="5ZmSQShtgP_7YSfKhpD3-17">
          <mxGeometry relative="1" as="geometry">
            <Array as="points">
              <mxPoint x="814" y="558" />
            </Array>
          </mxGeometry>
        </mxCell>
        <mxCell id="5ZmSQShtgP_7YSfKhpD3-136" value="" style="curved=1;startArrow=none;endArrow=open;endSize=12;exitX=0;exitY=0.94;entryX=0.96;entryY=0;rounded=0;" edge="1" parent="1" source="5ZmSQShtgP_7YSfKhpD3-115" target="5ZmSQShtgP_7YSfKhpD3-11">
          <mxGeometry relative="1" as="geometry">
            <Array as="points">
              <mxPoint x="794" y="558" />
            </Array>
          </mxGeometry>
        </mxCell>
        <mxCell id="5ZmSQShtgP_7YSfKhpD3-137" value="" style="curved=1;startArrow=none;endArrow=open;endSize=12;exitX=0.09;exitY=1;entryX=0.28;entryY=0;rounded=0;" edge="1" parent="1" source="5ZmSQShtgP_7YSfKhpD3-115" target="5ZmSQShtgP_7YSfKhpD3-17">
          <mxGeometry relative="1" as="geometry">
            <Array as="points">
              <mxPoint x="945" y="558" />
            </Array>
          </mxGeometry>
        </mxCell>
        <mxCell id="5ZmSQShtgP_7YSfKhpD3-138" value="" style="curved=1;startArrow=none;endArrow=open;endSize=12;exitX=0.62;exitY=1;entryX=0;entryY=0.24;rounded=0;" edge="1" parent="1" source="5ZmSQShtgP_7YSfKhpD3-115" target="5ZmSQShtgP_7YSfKhpD3-23">
          <mxGeometry relative="1" as="geometry">
            <Array as="points">
              <mxPoint x="1467" y="558" />
            </Array>
          </mxGeometry>
        </mxCell>
        <mxCell id="5ZmSQShtgP_7YSfKhpD3-139" value="" style="curved=1;startArrow=none;endArrow=open;endSize=12;exitX=1;exitY=0.76;entryX=0.5;entryY=0;rounded=0;" edge="1" parent="1" source="5ZmSQShtgP_7YSfKhpD3-115" target="5ZmSQShtgP_7YSfKhpD3-29">
          <mxGeometry relative="1" as="geometry">
            <Array as="points">
              <mxPoint x="2313" y="558" />
            </Array>
          </mxGeometry>
        </mxCell>
        <mxCell id="5ZmSQShtgP_7YSfKhpD3-140" value="" style="curved=1;startArrow=none;endArrow=open;endSize=12;exitX=0.5;exitY=1;entryX=0.5;entryY=0;rounded=0;" edge="1" parent="1" source="5ZmSQShtgP_7YSfKhpD3-47" target="5ZmSQShtgP_7YSfKhpD3-79">
          <mxGeometry relative="1" as="geometry">
            <Array as="points" />
          </mxGeometry>
        </mxCell>
        <mxCell id="5ZmSQShtgP_7YSfKhpD3-141" value="" style="curved=1;startArrow=none;endArrow=open;endSize=12;exitX=1;exitY=0.68;entryX=0.5;entryY=0;rounded=0;" edge="1" parent="1" source="5ZmSQShtgP_7YSfKhpD3-79" target="5ZmSQShtgP_7YSfKhpD3-88">
          <mxGeometry relative="1" as="geometry">
            <Array as="points">
              <mxPoint x="2849" y="558" />
            </Array>
          </mxGeometry>
        </mxCell>
        <mxCell id="5ZmSQShtgP_7YSfKhpD3-142" value="" style="curved=1;startArrow=diamondThin;startSize=14;startFill=1;endArrow=none;exitX=0.5;exitY=1;entryX=0.5;entryY=0;rounded=0;" edge="1" parent="1" source="5ZmSQShtgP_7YSfKhpD3-88" target="5ZmSQShtgP_7YSfKhpD3-95">
          <mxGeometry relative="1" as="geometry">
            <Array as="points" />
          </mxGeometry>
        </mxCell>
        <mxCell id="5ZmSQShtgP_7YSfKhpD3-143" value="" style="curved=1;startArrow=none;endArrow=open;endSize=12;exitX=0;exitY=0.7;entryX=0.83;entryY=0;rounded=0;" edge="1" parent="1" source="5ZmSQShtgP_7YSfKhpD3-79" target="5ZmSQShtgP_7YSfKhpD3-17">
          <mxGeometry relative="1" as="geometry">
            <Array as="points">
              <mxPoint x="1320" y="558" />
            </Array>
          </mxGeometry>
        </mxCell>
        <mxCell id="5ZmSQShtgP_7YSfKhpD3-144" value="" style="curved=1;startArrow=none;endArrow=open;endSize=12;exitX=0.5;exitY=1;entryX=1;entryY=0.12;rounded=0;" edge="1" parent="1" source="5ZmSQShtgP_7YSfKhpD3-79" target="5ZmSQShtgP_7YSfKhpD3-23">
          <mxGeometry relative="1" as="geometry">
            <Array as="points">
              <mxPoint x="2056" y="558" />
            </Array>
          </mxGeometry>
        </mxCell>
      </root>
    </mxGraphModel>
  </diagram>
  <diagram id="TfPxtUVS16zzzJqabuWZ" name="第 2 页">
    <mxGraphModel dx="3417" dy="1975" grid="1" gridSize="10" guides="1" tooltips="1" connect="1" arrows="1" fold="1" page="1" pageScale="1" pageWidth="827" pageHeight="1169" math="0" shadow="0">
      <root>
        <mxCell id="0" />
        <mxCell id="1" parent="0" />
        <mxCell id="ttJXTaofoa_NkVEZeppS-1" value="TemplateService" style="swimlane;fontStyle=1;align=center;verticalAlign=top;childLayout=stackLayout;horizontal=1;startSize=32.92307692307692;horizontalStack=0;resizeParent=1;resizeParentMax=0;resizeLast=0;collapsible=0;marginBottom=0;" vertex="1" parent="1">
          <mxGeometry x="2235" y="439" width="621" height="205.9230769230769" as="geometry" />
        </mxCell>
        <mxCell id="ttJXTaofoa_NkVEZeppS-2" style="line;strokeWidth=1;fillColor=none;align=left;verticalAlign=middle;spacingTop=-1;spacingLeft=3;spacingRight=3;rotatable=0;labelPosition=right;points=[];portConstraint=eastwest;strokeColor=inherit;" vertex="1" parent="ttJXTaofoa_NkVEZeppS-1">
          <mxGeometry y="32.92307692307692" width="621" height="8" as="geometry" />
        </mxCell>
        <mxCell id="ttJXTaofoa_NkVEZeppS-3" value="+getTemplateList() : List&lt;TemplateDTO&gt;" style="text;strokeColor=none;fillColor=none;align=left;verticalAlign=top;spacingLeft=4;spacingRight=4;overflow=hidden;rotatable=0;points=[[0,0.5],[1,0.5]];portConstraint=eastwest;" vertex="1" parent="ttJXTaofoa_NkVEZeppS-1">
          <mxGeometry y="40.92307692307692" width="621" height="33" as="geometry" />
        </mxCell>
        <mxCell id="ttJXTaofoa_NkVEZeppS-4" value="+getTemplateById(String id) : TemplateDTO" style="text;strokeColor=none;fillColor=none;align=left;verticalAlign=top;spacingLeft=4;spacingRight=4;overflow=hidden;rotatable=0;points=[[0,0.5],[1,0.5]];portConstraint=eastwest;" vertex="1" parent="ttJXTaofoa_NkVEZeppS-1">
          <mxGeometry y="73.92307692307692" width="621" height="33" as="geometry" />
        </mxCell>
        <mxCell id="ttJXTaofoa_NkVEZeppS-5" value="+getTemplateByVersion(String id, String version) : TemplateDTO" style="text;strokeColor=none;fillColor=none;align=left;verticalAlign=top;spacingLeft=4;spacingRight=4;overflow=hidden;rotatable=0;points=[[0,0.5],[1,0.5]];portConstraint=eastwest;" vertex="1" parent="ttJXTaofoa_NkVEZeppS-1">
          <mxGeometry y="106.92307692307692" width="621" height="33" as="geometry" />
        </mxCell>
        <mxCell id="ttJXTaofoa_NkVEZeppS-6" value="+createTemplate(TemplateCreateDTO template) : TemplateDTO" style="text;strokeColor=none;fillColor=none;align=left;verticalAlign=top;spacingLeft=4;spacingRight=4;overflow=hidden;rotatable=0;points=[[0,0.5],[1,0.5]];portConstraint=eastwest;" vertex="1" parent="ttJXTaofoa_NkVEZeppS-1">
          <mxGeometry y="139.9230769230769" width="621" height="33" as="geometry" />
        </mxCell>
        <mxCell id="ttJXTaofoa_NkVEZeppS-7" value="+updateTemplate(String id, TemplateUpdateDTO template) : TemplateDTO" style="text;strokeColor=none;fillColor=none;align=left;verticalAlign=top;spacingLeft=4;spacingRight=4;overflow=hidden;rotatable=0;points=[[0,0.5],[1,0.5]];portConstraint=eastwest;" vertex="1" parent="ttJXTaofoa_NkVEZeppS-1">
          <mxGeometry y="172.9230769230769" width="621" height="33" as="geometry" />
        </mxCell>
        <mxCell id="ttJXTaofoa_NkVEZeppS-8" value="&lt;&lt;interface&gt;&gt;&#xa;TemplateMatcher" style="swimlane;fontStyle=1;align=center;verticalAlign=top;childLayout=stackLayout;horizontal=1;startSize=71;horizontalStack=0;resizeParent=1;resizeParentMax=0;resizeLast=0;collapsible=0;marginBottom=0;" vertex="1" parent="1">
          <mxGeometry x="1710" y="475" width="475" height="126" as="geometry" />
        </mxCell>
        <mxCell id="ttJXTaofoa_NkVEZeppS-9" style="line;strokeWidth=1;fillColor=none;align=left;verticalAlign=middle;spacingTop=-1;spacingLeft=3;spacingRight=3;rotatable=0;labelPosition=right;points=[];portConstraint=eastwest;strokeColor=inherit;" vertex="1" parent="ttJXTaofoa_NkVEZeppS-8">
          <mxGeometry y="71" width="475" height="8" as="geometry" />
        </mxCell>
        <mxCell id="ttJXTaofoa_NkVEZeppS-10" value="+match(List&lt;ModelDTO&gt;, TemplateDTO) : MatchResult" style="text;strokeColor=none;fillColor=none;align=left;verticalAlign=top;spacingLeft=4;spacingRight=4;overflow=hidden;rotatable=0;points=[[0,0.5],[1,0.5]];portConstraint=eastwest;" vertex="1" parent="ttJXTaofoa_NkVEZeppS-8">
          <mxGeometry y="79" width="475" height="47" as="geometry" />
        </mxCell>
        <mxCell id="ttJXTaofoa_NkVEZeppS-11" value="FunctionMapTemplateMatcher" style="swimlane;fontStyle=1;align=center;verticalAlign=top;childLayout=stackLayout;horizontal=1;startSize=32;horizontalStack=0;resizeParent=1;resizeParentMax=0;resizeLast=0;collapsible=0;marginBottom=0;" vertex="1" parent="1">
          <mxGeometry x="1599" y="768" width="697" height="264" as="geometry" />
        </mxCell>
        <mxCell id="ttJXTaofoa_NkVEZeppS-12" value="-Map&lt;MatchType, BiFunction&gt; matchHandlers" style="text;strokeColor=none;fillColor=none;align=left;verticalAlign=top;spacingLeft=4;spacingRight=4;overflow=hidden;rotatable=0;points=[[0,0.5],[1,0.5]];portConstraint=eastwest;" vertex="1" parent="ttJXTaofoa_NkVEZeppS-11">
          <mxGeometry y="32" width="697" height="32" as="geometry" />
        </mxCell>
        <mxCell id="ttJXTaofoa_NkVEZeppS-13" style="line;strokeWidth=1;fillColor=none;align=left;verticalAlign=middle;spacingTop=-1;spacingLeft=3;spacingRight=3;rotatable=0;labelPosition=right;points=[];portConstraint=eastwest;strokeColor=inherit;" vertex="1" parent="ttJXTaofoa_NkVEZeppS-11">
          <mxGeometry y="64" width="697" height="8" as="geometry" />
        </mxCell>
        <mxCell id="ttJXTaofoa_NkVEZeppS-14" value="+match(List&lt;ModelDTO&gt;, TemplateDTO) : MatchResult" style="text;strokeColor=none;fillColor=none;align=left;verticalAlign=top;spacingLeft=4;spacingRight=4;overflow=hidden;rotatable=0;points=[[0,0.5],[1,0.5]];portConstraint=eastwest;" vertex="1" parent="ttJXTaofoa_NkVEZeppS-11">
          <mxGeometry y="72" width="697" height="32" as="geometry" />
        </mxCell>
        <mxCell id="ttJXTaofoa_NkVEZeppS-15" value="-determineMatchType(int, int) : MatchType" style="text;strokeColor=none;fillColor=none;align=left;verticalAlign=top;spacingLeft=4;spacingRight=4;overflow=hidden;rotatable=0;points=[[0,0.5],[1,0.5]];portConstraint=eastwest;" vertex="1" parent="ttJXTaofoa_NkVEZeppS-11">
          <mxGeometry y="104" width="697" height="32" as="geometry" />
        </mxCell>
        <mxCell id="ttJXTaofoa_NkVEZeppS-16" value="-handleOneToOne(List&lt;ModelDTO&lt;, List&gt;TemplateModelDTO&gt;) : MatchResult" style="text;strokeColor=none;fillColor=none;align=left;verticalAlign=top;spacingLeft=4;spacingRight=4;overflow=hidden;rotatable=0;points=[[0,0.5],[1,0.5]];portConstraint=eastwest;" vertex="1" parent="ttJXTaofoa_NkVEZeppS-11">
          <mxGeometry y="136" width="697" height="32" as="geometry" />
        </mxCell>
        <mxCell id="ttJXTaofoa_NkVEZeppS-17" value="-handleOneToMany(List&lt;ModelDTO&lt;, List&gt;TemplateModelDTO&gt;) : MatchResult" style="text;strokeColor=none;fillColor=none;align=left;verticalAlign=top;spacingLeft=4;spacingRight=4;overflow=hidden;rotatable=0;points=[[0,0.5],[1,0.5]];portConstraint=eastwest;" vertex="1" parent="ttJXTaofoa_NkVEZeppS-11">
          <mxGeometry y="168" width="697" height="32" as="geometry" />
        </mxCell>
        <mxCell id="ttJXTaofoa_NkVEZeppS-18" value="-handleManyToOne(List&lt;ModelDTO&lt;, List&gt;TemplateModelDTO&gt;) : MatchResult" style="text;strokeColor=none;fillColor=none;align=left;verticalAlign=top;spacingLeft=4;spacingRight=4;overflow=hidden;rotatable=0;points=[[0,0.5],[1,0.5]];portConstraint=eastwest;" vertex="1" parent="ttJXTaofoa_NkVEZeppS-11">
          <mxGeometry y="200" width="697" height="32" as="geometry" />
        </mxCell>
        <mxCell id="ttJXTaofoa_NkVEZeppS-19" value="-handleManyToMany(List&lt;ModelDTO&lt;, List&gt;TemplateModelDTO&gt;) : MatchResult" style="text;strokeColor=none;fillColor=none;align=left;verticalAlign=top;spacingLeft=4;spacingRight=4;overflow=hidden;rotatable=0;points=[[0,0.5],[1,0.5]];portConstraint=eastwest;" vertex="1" parent="ttJXTaofoa_NkVEZeppS-11">
          <mxGeometry y="232" width="697" height="32" as="geometry" />
        </mxCell>
        <mxCell id="ttJXTaofoa_NkVEZeppS-20" value="&lt;&lt;enumeration&gt;&gt;&#xa;MatchType" style="swimlane;fontStyle=1;align=center;verticalAlign=top;childLayout=stackLayout;horizontal=1;startSize=52;horizontalStack=0;resizeParent=1;resizeParentMax=0;resizeLast=0;collapsible=0;marginBottom=0;" vertex="1" parent="1">
          <mxGeometry x="2037" y="1106" width="194" height="209" as="geometry" />
        </mxCell>
        <mxCell id="ttJXTaofoa_NkVEZeppS-21" value="ONE_TO_ONE" style="text;strokeColor=none;fillColor=none;align=left;verticalAlign=top;spacingLeft=4;spacingRight=4;overflow=hidden;rotatable=0;points=[[0,0.5],[1,0.5]];portConstraint=eastwest;" vertex="1" parent="ttJXTaofoa_NkVEZeppS-20">
          <mxGeometry y="52" width="194" height="35" as="geometry" />
        </mxCell>
        <mxCell id="ttJXTaofoa_NkVEZeppS-22" value="ONE_TO_MANY" style="text;strokeColor=none;fillColor=none;align=left;verticalAlign=top;spacingLeft=4;spacingRight=4;overflow=hidden;rotatable=0;points=[[0,0.5],[1,0.5]];portConstraint=eastwest;" vertex="1" parent="ttJXTaofoa_NkVEZeppS-20">
          <mxGeometry y="87" width="194" height="35" as="geometry" />
        </mxCell>
        <mxCell id="ttJXTaofoa_NkVEZeppS-23" value="MANY_TO_ONE" style="text;strokeColor=none;fillColor=none;align=left;verticalAlign=top;spacingLeft=4;spacingRight=4;overflow=hidden;rotatable=0;points=[[0,0.5],[1,0.5]];portConstraint=eastwest;" vertex="1" parent="ttJXTaofoa_NkVEZeppS-20">
          <mxGeometry y="122" width="194" height="35" as="geometry" />
        </mxCell>
        <mxCell id="ttJXTaofoa_NkVEZeppS-24" value="MANY_TO_MANY" style="text;strokeColor=none;fillColor=none;align=left;verticalAlign=top;spacingLeft=4;spacingRight=4;overflow=hidden;rotatable=0;points=[[0,0.5],[1,0.5]];portConstraint=eastwest;" vertex="1" parent="ttJXTaofoa_NkVEZeppS-20">
          <mxGeometry y="157" width="194" height="35" as="geometry" />
        </mxCell>
        <mxCell id="ttJXTaofoa_NkVEZeppS-25" style="line;strokeWidth=1;fillColor=none;align=left;verticalAlign=middle;spacingTop=-1;spacingLeft=3;spacingRight=3;rotatable=0;labelPosition=right;points=[];portConstraint=eastwest;strokeColor=inherit;" vertex="1" parent="ttJXTaofoa_NkVEZeppS-20">
          <mxGeometry y="192" width="194" height="17" as="geometry" />
        </mxCell>
        <mxCell id="ttJXTaofoa_NkVEZeppS-26" value="MatchResult" style="swimlane;fontStyle=1;align=center;verticalAlign=top;childLayout=stackLayout;horizontal=1;startSize=36.8;horizontalStack=0;resizeParent=1;resizeParentMax=0;resizeLast=0;collapsible=0;marginBottom=0;" vertex="1" parent="1">
          <mxGeometry x="1535" y="1118" width="452" height="192.8" as="geometry" />
        </mxCell>
        <mxCell id="ttJXTaofoa_NkVEZeppS-27" value="-MatchTypeEnum type" style="text;strokeColor=none;fillColor=none;align=left;verticalAlign=top;spacingLeft=4;spacingRight=4;overflow=hidden;rotatable=0;points=[[0,0.5],[1,0.5]];portConstraint=eastwest;" vertex="1" parent="ttJXTaofoa_NkVEZeppS-26">
          <mxGeometry y="36.8" width="452" height="37" as="geometry" />
        </mxCell>
        <mxCell id="ttJXTaofoa_NkVEZeppS-28" value="-Map&lt;ModelDTO, TemplateModelDTO&gt; mapping" style="text;strokeColor=none;fillColor=none;align=left;verticalAlign=top;spacingLeft=4;spacingRight=4;overflow=hidden;rotatable=0;points=[[0,0.5],[1,0.5]];portConstraint=eastwest;" vertex="1" parent="ttJXTaofoa_NkVEZeppS-26">
          <mxGeometry y="73.8" width="452" height="37" as="geometry" />
        </mxCell>
        <mxCell id="ttJXTaofoa_NkVEZeppS-29" style="line;strokeWidth=1;fillColor=none;align=left;verticalAlign=middle;spacingTop=-1;spacingLeft=3;spacingRight=3;rotatable=0;labelPosition=right;points=[];portConstraint=eastwest;strokeColor=inherit;" vertex="1" parent="ttJXTaofoa_NkVEZeppS-26">
          <mxGeometry y="110.8" width="452" height="8" as="geometry" />
        </mxCell>
        <mxCell id="ttJXTaofoa_NkVEZeppS-30" value="+getType() : MatchTypeEnum" style="text;strokeColor=none;fillColor=none;align=left;verticalAlign=top;spacingLeft=4;spacingRight=4;overflow=hidden;rotatable=0;points=[[0,0.5],[1,0.5]];portConstraint=eastwest;" vertex="1" parent="ttJXTaofoa_NkVEZeppS-26">
          <mxGeometry y="118.8" width="452" height="37" as="geometry" />
        </mxCell>
        <mxCell id="ttJXTaofoa_NkVEZeppS-31" value="+getMapping() : Map&lt;ModelDTO, TemplateModelDTO&gt;" style="text;strokeColor=none;fillColor=none;align=left;verticalAlign=top;spacingLeft=4;spacingRight=4;overflow=hidden;rotatable=0;points=[[0,0.5],[1,0.5]];portConstraint=eastwest;" vertex="1" parent="ttJXTaofoa_NkVEZeppS-26">
          <mxGeometry y="155.8" width="452" height="37" as="geometry" />
        </mxCell>
        <mxCell id="ttJXTaofoa_NkVEZeppS-32" value="&lt;&lt;interface&gt;&gt;&#xa;TaskGenerator" style="swimlane;fontStyle=1;align=center;verticalAlign=top;childLayout=stackLayout;horizontal=1;startSize=71;horizontalStack=0;resizeParent=1;resizeParentMax=0;resizeLast=0;collapsible=0;marginBottom=0;" vertex="1" parent="1">
          <mxGeometry x="893" y="475" width="354" height="126" as="geometry" />
        </mxCell>
        <mxCell id="ttJXTaofoa_NkVEZeppS-33" style="line;strokeWidth=1;fillColor=none;align=left;verticalAlign=middle;spacingTop=-1;spacingLeft=3;spacingRight=3;rotatable=0;labelPosition=right;points=[];portConstraint=eastwest;strokeColor=inherit;" vertex="1" parent="ttJXTaofoa_NkVEZeppS-32">
          <mxGeometry y="71" width="354" height="8" as="geometry" />
        </mxCell>
        <mxCell id="ttJXTaofoa_NkVEZeppS-34" value="+generate(MatchResult) : TaskPlanDTO" style="text;strokeColor=none;fillColor=none;align=left;verticalAlign=top;spacingLeft=4;spacingRight=4;overflow=hidden;rotatable=0;points=[[0,0.5],[1,0.5]];portConstraint=eastwest;" vertex="1" parent="ttJXTaofoa_NkVEZeppS-32">
          <mxGeometry y="79" width="354" height="47" as="geometry" />
        </mxCell>
        <mxCell id="ttJXTaofoa_NkVEZeppS-35" value="TemplateBasedTaskGenerator" style="swimlane;fontStyle=1;align=center;verticalAlign=top;childLayout=stackLayout;horizontal=1;startSize=33.142857142857146;horizontalStack=0;resizeParent=1;resizeParentMax=0;resizeLast=0;collapsible=0;marginBottom=0;" vertex="1" parent="1">
          <mxGeometry x="736" y="780" width="667" height="239.14285714285714" as="geometry" />
        </mxCell>
        <mxCell id="ttJXTaofoa_NkVEZeppS-36" value="-TaskDefinitionRepository taskDefinitionRepo" style="text;strokeColor=none;fillColor=none;align=left;verticalAlign=top;spacingLeft=4;spacingRight=4;overflow=hidden;rotatable=0;points=[[0,0.5],[1,0.5]];portConstraint=eastwest;" vertex="1" parent="ttJXTaofoa_NkVEZeppS-35">
          <mxGeometry y="33.142857142857146" width="667" height="33" as="geometry" />
        </mxCell>
        <mxCell id="ttJXTaofoa_NkVEZeppS-37" value="-TaskRelationshipBuilder relationshipBuilder" style="text;strokeColor=none;fillColor=none;align=left;verticalAlign=top;spacingLeft=4;spacingRight=4;overflow=hidden;rotatable=0;points=[[0,0.5],[1,0.5]];portConstraint=eastwest;" vertex="1" parent="ttJXTaofoa_NkVEZeppS-35">
          <mxGeometry y="66.14285714285714" width="667" height="33" as="geometry" />
        </mxCell>
        <mxCell id="ttJXTaofoa_NkVEZeppS-38" style="line;strokeWidth=1;fillColor=none;align=left;verticalAlign=middle;spacingTop=-1;spacingLeft=3;spacingRight=3;rotatable=0;labelPosition=right;points=[];portConstraint=eastwest;strokeColor=inherit;" vertex="1" parent="ttJXTaofoa_NkVEZeppS-35">
          <mxGeometry y="99.14285714285714" width="667" height="8" as="geometry" />
        </mxCell>
        <mxCell id="ttJXTaofoa_NkVEZeppS-39" value="+generate(MatchResult) : TaskPlanDTO" style="text;strokeColor=none;fillColor=none;align=left;verticalAlign=top;spacingLeft=4;spacingRight=4;overflow=hidden;rotatable=0;points=[[0,0.5],[1,0.5]];portConstraint=eastwest;" vertex="1" parent="ttJXTaofoa_NkVEZeppS-35">
          <mxGeometry y="107.14285714285714" width="667" height="33" as="geometry" />
        </mxCell>
        <mxCell id="ttJXTaofoa_NkVEZeppS-40" value="-createTasksForModel(List&lt;TemplateTaskDTO&lt;, ModelDTO) : List&gt;TaskDTO&gt;" style="text;strokeColor=none;fillColor=none;align=left;verticalAlign=top;spacingLeft=4;spacingRight=4;overflow=hidden;rotatable=0;points=[[0,0.5],[1,0.5]];portConstraint=eastwest;" vertex="1" parent="ttJXTaofoa_NkVEZeppS-35">
          <mxGeometry y="140.14285714285714" width="667" height="33" as="geometry" />
        </mxCell>
        <mxCell id="ttJXTaofoa_NkVEZeppS-41" value="-resolveTaskName(String, ModelDTO) : String" style="text;strokeColor=none;fillColor=none;align=left;verticalAlign=top;spacingLeft=4;spacingRight=4;overflow=hidden;rotatable=0;points=[[0,0.5],[1,0.5]];portConstraint=eastwest;" vertex="1" parent="ttJXTaofoa_NkVEZeppS-35">
          <mxGeometry y="173.14285714285714" width="667" height="33" as="geometry" />
        </mxCell>
        <mxCell id="ttJXTaofoa_NkVEZeppS-42" value="-resolveTaskDescription(String, ModelDTO) : String" style="text;strokeColor=none;fillColor=none;align=left;verticalAlign=top;spacingLeft=4;spacingRight=4;overflow=hidden;rotatable=0;points=[[0,0.5],[1,0.5]];portConstraint=eastwest;" vertex="1" parent="ttJXTaofoa_NkVEZeppS-35">
          <mxGeometry y="206.14285714285714" width="667" height="33" as="geometry" />
        </mxCell>
        <mxCell id="ttJXTaofoa_NkVEZeppS-43" value="&lt;&lt;interface&gt;&gt;&#xa;TaskRelationshipBuilder" style="swimlane;fontStyle=1;align=center;verticalAlign=top;childLayout=stackLayout;horizontal=1;startSize=71;horizontalStack=0;resizeParent=1;resizeParentMax=0;resizeLast=0;collapsible=0;marginBottom=0;" vertex="1" parent="1">
          <mxGeometry x="696" y="1139" width="748" height="126" as="geometry" />
        </mxCell>
        <mxCell id="ttJXTaofoa_NkVEZeppS-44" style="line;strokeWidth=1;fillColor=none;align=left;verticalAlign=middle;spacingTop=-1;spacingLeft=3;spacingRight=3;rotatable=0;labelPosition=right;points=[];portConstraint=eastwest;strokeColor=inherit;" vertex="1" parent="ttJXTaofoa_NkVEZeppS-43">
          <mxGeometry y="71" width="748" height="8" as="geometry" />
        </mxCell>
        <mxCell id="ttJXTaofoa_NkVEZeppS-45" value="+buildRelationships(List&lt;TemplateTaskDTO&lt;, List&lt;TaskDTO&gt;) : List&gt;TaskRelationshipDTO&gt;" style="text;strokeColor=none;fillColor=none;align=left;verticalAlign=top;spacingLeft=4;spacingRight=4;overflow=hidden;rotatable=0;points=[[0,0.5],[1,0.5]];portConstraint=eastwest;" vertex="1" parent="ttJXTaofoa_NkVEZeppS-43">
          <mxGeometry y="79" width="748" height="47" as="geometry" />
        </mxCell>
        <mxCell id="ttJXTaofoa_NkVEZeppS-46" value="TaskRelationshipBuilderImpl" style="swimlane;fontStyle=1;align=center;verticalAlign=top;childLayout=stackLayout;horizontal=1;startSize=47.2;horizontalStack=0;resizeParent=1;resizeParentMax=0;resizeLast=0;collapsible=0;marginBottom=0;" vertex="1" parent="1">
          <mxGeometry x="688" y="1465" width="764" height="102.2" as="geometry" />
        </mxCell>
        <mxCell id="ttJXTaofoa_NkVEZeppS-47" style="line;strokeWidth=1;fillColor=none;align=left;verticalAlign=middle;spacingTop=-1;spacingLeft=3;spacingRight=3;rotatable=0;labelPosition=right;points=[];portConstraint=eastwest;strokeColor=inherit;" vertex="1" parent="ttJXTaofoa_NkVEZeppS-46">
          <mxGeometry y="47.2" width="764" height="8" as="geometry" />
        </mxCell>
        <mxCell id="ttJXTaofoa_NkVEZeppS-48" value="+buildRelationships(List&lt;TemplateTaskDTO&lt;, List&lt;TaskDTO&gt;) : List&gt;TaskRelationshipDTO&gt;" style="text;strokeColor=none;fillColor=none;align=left;verticalAlign=top;spacingLeft=4;spacingRight=4;overflow=hidden;rotatable=0;points=[[0,0.5],[1,0.5]];portConstraint=eastwest;" vertex="1" parent="ttJXTaofoa_NkVEZeppS-46">
          <mxGeometry y="55.2" width="764" height="47" as="geometry" />
        </mxCell>
        <mxCell id="ttJXTaofoa_NkVEZeppS-49" value="&lt;&lt;interface&gt;&gt;&#xa;TaskDAG" style="swimlane;fontStyle=1;align=center;verticalAlign=top;childLayout=stackLayout;horizontal=1;startSize=51;horizontalStack=0;resizeParent=1;resizeParentMax=0;resizeLast=0;collapsible=0;marginBottom=0;" vertex="1" parent="1">
          <mxGeometry x="98" y="1091" width="511" height="229" as="geometry" />
        </mxCell>
        <mxCell id="ttJXTaofoa_NkVEZeppS-50" style="line;strokeWidth=1;fillColor=none;align=left;verticalAlign=middle;spacingTop=-1;spacingLeft=3;spacingRight=3;rotatable=0;labelPosition=right;points=[];portConstraint=eastwest;strokeColor=inherit;" vertex="1" parent="ttJXTaofoa_NkVEZeppS-49">
          <mxGeometry y="51" width="511" height="8" as="geometry" />
        </mxCell>
        <mxCell id="ttJXTaofoa_NkVEZeppS-51" value="+buildGraph(List&lt;TaskDTO&lt;, List&gt;TaskRelationshipDTO&gt;) : void" style="text;strokeColor=none;fillColor=none;align=left;verticalAlign=top;spacingLeft=4;spacingRight=4;overflow=hidden;rotatable=0;points=[[0,0.5],[1,0.5]];portConstraint=eastwest;" vertex="1" parent="ttJXTaofoa_NkVEZeppS-49">
          <mxGeometry y="59" width="511" height="34" as="geometry" />
        </mxCell>
        <mxCell id="ttJXTaofoa_NkVEZeppS-52" value="+validateAcyclic() : boolean" style="text;strokeColor=none;fillColor=none;align=left;verticalAlign=top;spacingLeft=4;spacingRight=4;overflow=hidden;rotatable=0;points=[[0,0.5],[1,0.5]];portConstraint=eastwest;" vertex="1" parent="ttJXTaofoa_NkVEZeppS-49">
          <mxGeometry y="93" width="511" height="34" as="geometry" />
        </mxCell>
        <mxCell id="ttJXTaofoa_NkVEZeppS-53" value="+getTopologicalOrder() : List&lt;TaskDTO&gt;" style="text;strokeColor=none;fillColor=none;align=left;verticalAlign=top;spacingLeft=4;spacingRight=4;overflow=hidden;rotatable=0;points=[[0,0.5],[1,0.5]];portConstraint=eastwest;" vertex="1" parent="ttJXTaofoa_NkVEZeppS-49">
          <mxGeometry y="127" width="511" height="34" as="geometry" />
        </mxCell>
        <mxCell id="ttJXTaofoa_NkVEZeppS-54" value="+getPredecessors(TaskDTO) : Set&lt;TaskDTO&gt;" style="text;strokeColor=none;fillColor=none;align=left;verticalAlign=top;spacingLeft=4;spacingRight=4;overflow=hidden;rotatable=0;points=[[0,0.5],[1,0.5]];portConstraint=eastwest;" vertex="1" parent="ttJXTaofoa_NkVEZeppS-49">
          <mxGeometry y="161" width="511" height="34" as="geometry" />
        </mxCell>
        <mxCell id="ttJXTaofoa_NkVEZeppS-55" value="+getSuccessors(TaskDTO) : Set&lt;TaskDTO&gt;" style="text;strokeColor=none;fillColor=none;align=left;verticalAlign=top;spacingLeft=4;spacingRight=4;overflow=hidden;rotatable=0;points=[[0,0.5],[1,0.5]];portConstraint=eastwest;" vertex="1" parent="ttJXTaofoa_NkVEZeppS-49">
          <mxGeometry y="195" width="511" height="34" as="geometry" />
        </mxCell>
        <mxCell id="ttJXTaofoa_NkVEZeppS-56" value="TaskDAGImpl" style="swimlane;fontStyle=1;align=center;verticalAlign=top;childLayout=stackLayout;horizontal=1;startSize=32;horizontalStack=0;resizeParent=1;resizeParentMax=0;resizeLast=0;collapsible=0;marginBottom=0;" vertex="1" parent="1">
          <mxGeometry x="94" y="1396" width="517" height="264" as="geometry" />
        </mxCell>
        <mxCell id="ttJXTaofoa_NkVEZeppS-57" value="-DirectedAcyclicGraph&lt;TaskDTO, DefaultEdge&gt; graph" style="text;strokeColor=none;fillColor=none;align=left;verticalAlign=top;spacingLeft=4;spacingRight=4;overflow=hidden;rotatable=0;points=[[0,0.5],[1,0.5]];portConstraint=eastwest;" vertex="1" parent="ttJXTaofoa_NkVEZeppS-56">
          <mxGeometry y="32" width="517" height="32" as="geometry" />
        </mxCell>
        <mxCell id="ttJXTaofoa_NkVEZeppS-58" style="line;strokeWidth=1;fillColor=none;align=left;verticalAlign=middle;spacingTop=-1;spacingLeft=3;spacingRight=3;rotatable=0;labelPosition=right;points=[];portConstraint=eastwest;strokeColor=inherit;" vertex="1" parent="ttJXTaofoa_NkVEZeppS-56">
          <mxGeometry y="64" width="517" height="8" as="geometry" />
        </mxCell>
        <mxCell id="ttJXTaofoa_NkVEZeppS-59" value="+buildGraph(List&lt;TaskDTO&lt;, List&gt;TaskRelationshipDTO&gt;) : void" style="text;strokeColor=none;fillColor=none;align=left;verticalAlign=top;spacingLeft=4;spacingRight=4;overflow=hidden;rotatable=0;points=[[0,0.5],[1,0.5]];portConstraint=eastwest;" vertex="1" parent="ttJXTaofoa_NkVEZeppS-56">
          <mxGeometry y="72" width="517" height="32" as="geometry" />
        </mxCell>
        <mxCell id="ttJXTaofoa_NkVEZeppS-60" value="+validateAcyclic() : boolean" style="text;strokeColor=none;fillColor=none;align=left;verticalAlign=top;spacingLeft=4;spacingRight=4;overflow=hidden;rotatable=0;points=[[0,0.5],[1,0.5]];portConstraint=eastwest;" vertex="1" parent="ttJXTaofoa_NkVEZeppS-56">
          <mxGeometry y="104" width="517" height="32" as="geometry" />
        </mxCell>
        <mxCell id="ttJXTaofoa_NkVEZeppS-61" value="+getTopologicalOrder() : List&lt;TaskDTO&gt;" style="text;strokeColor=none;fillColor=none;align=left;verticalAlign=top;spacingLeft=4;spacingRight=4;overflow=hidden;rotatable=0;points=[[0,0.5],[1,0.5]];portConstraint=eastwest;" vertex="1" parent="ttJXTaofoa_NkVEZeppS-56">
          <mxGeometry y="136" width="517" height="32" as="geometry" />
        </mxCell>
        <mxCell id="ttJXTaofoa_NkVEZeppS-62" value="+getPredecessors(TaskDTO) : Set&lt;TaskDTO&gt;" style="text;strokeColor=none;fillColor=none;align=left;verticalAlign=top;spacingLeft=4;spacingRight=4;overflow=hidden;rotatable=0;points=[[0,0.5],[1,0.5]];portConstraint=eastwest;" vertex="1" parent="ttJXTaofoa_NkVEZeppS-56">
          <mxGeometry y="168" width="517" height="32" as="geometry" />
        </mxCell>
        <mxCell id="ttJXTaofoa_NkVEZeppS-63" value="+getSuccessors(TaskDTO) : Set&lt;TaskDTO&gt;" style="text;strokeColor=none;fillColor=none;align=left;verticalAlign=top;spacingLeft=4;spacingRight=4;overflow=hidden;rotatable=0;points=[[0,0.5],[1,0.5]];portConstraint=eastwest;" vertex="1" parent="ttJXTaofoa_NkVEZeppS-56">
          <mxGeometry y="200" width="517" height="32" as="geometry" />
        </mxCell>
        <mxCell id="ttJXTaofoa_NkVEZeppS-64" value="-detectCycleDetails(TaskDTO, TaskDTO) : String" style="text;strokeColor=none;fillColor=none;align=left;verticalAlign=top;spacingLeft=4;spacingRight=4;overflow=hidden;rotatable=0;points=[[0,0.5],[1,0.5]];portConstraint=eastwest;" vertex="1" parent="ttJXTaofoa_NkVEZeppS-56">
          <mxGeometry y="232" width="517" height="32" as="geometry" />
        </mxCell>
        <mxCell id="ttJXTaofoa_NkVEZeppS-65" value="&lt;&lt;interface&gt;&gt;&#xa;TaskOptimizer" style="swimlane;fontStyle=1;align=center;verticalAlign=top;childLayout=stackLayout;horizontal=1;startSize=71;horizontalStack=0;resizeParent=1;resizeParentMax=0;resizeLast=0;collapsible=0;marginBottom=0;" vertex="1" parent="1">
          <mxGeometry x="38" y="475" width="630" height="126" as="geometry" />
        </mxCell>
        <mxCell id="ttJXTaofoa_NkVEZeppS-66" style="line;strokeWidth=1;fillColor=none;align=left;verticalAlign=middle;spacingTop=-1;spacingLeft=3;spacingRight=3;rotatable=0;labelPosition=right;points=[];portConstraint=eastwest;strokeColor=inherit;" vertex="1" parent="ttJXTaofoa_NkVEZeppS-65">
          <mxGeometry y="71" width="630" height="8" as="geometry" />
        </mxCell>
        <mxCell id="ttJXTaofoa_NkVEZeppS-67" value="+optimize(TaskPlanDTO, ResourcePoolDTO, StaffWorkloadDTO) : TaskPlanDTO" style="text;strokeColor=none;fillColor=none;align=left;verticalAlign=top;spacingLeft=4;spacingRight=4;overflow=hidden;rotatable=0;points=[[0,0.5],[1,0.5]];portConstraint=eastwest;" vertex="1" parent="ttJXTaofoa_NkVEZeppS-65">
          <mxGeometry y="79" width="630" height="47" as="geometry" />
        </mxCell>
        <mxCell id="ttJXTaofoa_NkVEZeppS-68" value="TwoPhaseTaskOptimizer" style="swimlane;fontStyle=1;align=center;verticalAlign=top;childLayout=stackLayout;horizontal=1;startSize=36.8;horizontalStack=0;resizeParent=1;resizeParentMax=0;resizeLast=0;collapsible=0;marginBottom=0;" vertex="1" parent="1">
          <mxGeometry x="20" y="804" width="666" height="192.8" as="geometry" />
        </mxCell>
        <mxCell id="ttJXTaofoa_NkVEZeppS-69" value="-ParallelTaskIdentifier parallelTaskIdentifier" style="text;strokeColor=none;fillColor=none;align=left;verticalAlign=top;spacingLeft=4;spacingRight=4;overflow=hidden;rotatable=0;points=[[0,0.5],[1,0.5]];portConstraint=eastwest;" vertex="1" parent="ttJXTaofoa_NkVEZeppS-68">
          <mxGeometry y="36.8" width="666" height="37" as="geometry" />
        </mxCell>
        <mxCell id="ttJXTaofoa_NkVEZeppS-70" value="-ResourceBalancer resourceBalancer" style="text;strokeColor=none;fillColor=none;align=left;verticalAlign=top;spacingLeft=4;spacingRight=4;overflow=hidden;rotatable=0;points=[[0,0.5],[1,0.5]];portConstraint=eastwest;" vertex="1" parent="ttJXTaofoa_NkVEZeppS-68">
          <mxGeometry y="73.8" width="666" height="37" as="geometry" />
        </mxCell>
        <mxCell id="ttJXTaofoa_NkVEZeppS-71" value="-CriticalPathAnalyzer pathAnalyzer" style="text;strokeColor=none;fillColor=none;align=left;verticalAlign=top;spacingLeft=4;spacingRight=4;overflow=hidden;rotatable=0;points=[[0,0.5],[1,0.5]];portConstraint=eastwest;" vertex="1" parent="ttJXTaofoa_NkVEZeppS-68">
          <mxGeometry y="110.8" width="666" height="37" as="geometry" />
        </mxCell>
        <mxCell id="ttJXTaofoa_NkVEZeppS-72" style="line;strokeWidth=1;fillColor=none;align=left;verticalAlign=middle;spacingTop=-1;spacingLeft=3;spacingRight=3;rotatable=0;labelPosition=right;points=[];portConstraint=eastwest;strokeColor=inherit;" vertex="1" parent="ttJXTaofoa_NkVEZeppS-68">
          <mxGeometry y="147.8" width="666" height="8" as="geometry" />
        </mxCell>
        <mxCell id="ttJXTaofoa_NkVEZeppS-73" value="+optimize(TaskPlanDTO, ResourcePoolDTO, StaffWorkloadDTO) : TaskPlanDTO" style="text;strokeColor=none;fillColor=none;align=left;verticalAlign=top;spacingLeft=4;spacingRight=4;overflow=hidden;rotatable=0;points=[[0,0.5],[1,0.5]];portConstraint=eastwest;" vertex="1" parent="ttJXTaofoa_NkVEZeppS-68">
          <mxGeometry y="155.8" width="666" height="37" as="geometry" />
        </mxCell>
        <mxCell id="ttJXTaofoa_NkVEZeppS-74" value="ExperimentPlanService" style="swimlane;fontStyle=1;align=center;verticalAlign=top;childLayout=stackLayout;horizontal=1;startSize=30.4;horizontalStack=0;resizeParent=1;resizeParentMax=0;resizeLast=0;collapsible=0;marginBottom=0;" vertex="1" parent="1">
          <mxGeometry x="1258" y="20" width="646" height="308.4" as="geometry" />
        </mxCell>
        <mxCell id="ttJXTaofoa_NkVEZeppS-75" value="-TemplateService templateService" style="text;strokeColor=none;fillColor=none;align=left;verticalAlign=top;spacingLeft=4;spacingRight=4;overflow=hidden;rotatable=0;points=[[0,0.5],[1,0.5]];portConstraint=eastwest;" vertex="1" parent="ttJXTaofoa_NkVEZeppS-74">
          <mxGeometry y="30.4" width="646" height="30" as="geometry" />
        </mxCell>
        <mxCell id="ttJXTaofoa_NkVEZeppS-76" value="-TemplateMatcher templateMatcher" style="text;strokeColor=none;fillColor=none;align=left;verticalAlign=top;spacingLeft=4;spacingRight=4;overflow=hidden;rotatable=0;points=[[0,0.5],[1,0.5]];portConstraint=eastwest;" vertex="1" parent="ttJXTaofoa_NkVEZeppS-74">
          <mxGeometry y="60.4" width="646" height="30" as="geometry" />
        </mxCell>
        <mxCell id="ttJXTaofoa_NkVEZeppS-77" value="-TaskGenerator taskGenerator" style="text;strokeColor=none;fillColor=none;align=left;verticalAlign=top;spacingLeft=4;spacingRight=4;overflow=hidden;rotatable=0;points=[[0,0.5],[1,0.5]];portConstraint=eastwest;" vertex="1" parent="ttJXTaofoa_NkVEZeppS-74">
          <mxGeometry y="90.4" width="646" height="30" as="geometry" />
        </mxCell>
        <mxCell id="ttJXTaofoa_NkVEZeppS-78" value="-TaskOptimizer taskOptimizer" style="text;strokeColor=none;fillColor=none;align=left;verticalAlign=top;spacingLeft=4;spacingRight=4;overflow=hidden;rotatable=0;points=[[0,0.5],[1,0.5]];portConstraint=eastwest;" vertex="1" parent="ttJXTaofoa_NkVEZeppS-74">
          <mxGeometry y="120.4" width="646" height="30" as="geometry" />
        </mxCell>
        <mxCell id="ttJXTaofoa_NkVEZeppS-79" value="-WorkflowGenerator workflowGenerator" style="text;strokeColor=none;fillColor=none;align=left;verticalAlign=top;spacingLeft=4;spacingRight=4;overflow=hidden;rotatable=0;points=[[0,0.5],[1,0.5]];portConstraint=eastwest;" vertex="1" parent="ttJXTaofoa_NkVEZeppS-74">
          <mxGeometry y="150.4" width="646" height="30" as="geometry" />
        </mxCell>
        <mxCell id="ttJXTaofoa_NkVEZeppS-80" value="-TaskPlanRepository taskPlanRepository" style="text;strokeColor=none;fillColor=none;align=left;verticalAlign=top;spacingLeft=4;spacingRight=4;overflow=hidden;rotatable=0;points=[[0,0.5],[1,0.5]];portConstraint=eastwest;" vertex="1" parent="ttJXTaofoa_NkVEZeppS-74">
          <mxGeometry y="180.4" width="646" height="30" as="geometry" />
        </mxCell>
        <mxCell id="ttJXTaofoa_NkVEZeppS-81" style="line;strokeWidth=1;fillColor=none;align=left;verticalAlign=middle;spacingTop=-1;spacingLeft=3;spacingRight=3;rotatable=0;labelPosition=right;points=[];portConstraint=eastwest;strokeColor=inherit;" vertex="1" parent="ttJXTaofoa_NkVEZeppS-74">
          <mxGeometry y="210.4" width="646" height="8" as="geometry" />
        </mxCell>
        <mxCell id="ttJXTaofoa_NkVEZeppS-82" value="+createExperimentPlan(ExperimentPlanRequestDTO) : ExperimentPlanDTO" style="text;strokeColor=none;fillColor=none;align=left;verticalAlign=top;spacingLeft=4;spacingRight=4;overflow=hidden;rotatable=0;points=[[0,0.5],[1,0.5]];portConstraint=eastwest;" vertex="1" parent="ttJXTaofoa_NkVEZeppS-74">
          <mxGeometry y="218.4" width="646" height="30" as="geometry" />
        </mxCell>
        <mxCell id="ttJXTaofoa_NkVEZeppS-83" value="+saveExperimentPlan(TaskPlanDTO) : ExperimentPlanDTO" style="text;strokeColor=none;fillColor=none;align=left;verticalAlign=top;spacingLeft=4;spacingRight=4;overflow=hidden;rotatable=0;points=[[0,0.5],[1,0.5]];portConstraint=eastwest;" vertex="1" parent="ttJXTaofoa_NkVEZeppS-74">
          <mxGeometry y="248.4" width="646" height="30" as="geometry" />
        </mxCell>
        <mxCell id="ttJXTaofoa_NkVEZeppS-84" value="-validateTaskPlan(TaskPlanDTO) : ValidationResult" style="text;strokeColor=none;fillColor=none;align=left;verticalAlign=top;spacingLeft=4;spacingRight=4;overflow=hidden;rotatable=0;points=[[0,0.5],[1,0.5]];portConstraint=eastwest;" vertex="1" parent="ttJXTaofoa_NkVEZeppS-74">
          <mxGeometry y="278.4" width="646" height="30" as="geometry" />
        </mxCell>
        <mxCell id="ttJXTaofoa_NkVEZeppS-85" value="TemplateDTO" style="swimlane;fontStyle=1;align=center;verticalAlign=top;childLayout=stackLayout;horizontal=1;startSize=30.11764705882353;horizontalStack=0;resizeParent=1;resizeParentMax=0;resizeLast=0;collapsible=0;marginBottom=0;" vertex="1" parent="1">
          <mxGeometry x="2281" y="1082" width="315" height="255.11764705882354" as="geometry" />
        </mxCell>
        <mxCell id="ttJXTaofoa_NkVEZeppS-86" value="-String id" style="text;strokeColor=none;fillColor=none;align=left;verticalAlign=top;spacingLeft=4;spacingRight=4;overflow=hidden;rotatable=0;points=[[0,0.5],[1,0.5]];portConstraint=eastwest;" vertex="1" parent="ttJXTaofoa_NkVEZeppS-85">
          <mxGeometry y="30.11764705882353" width="315" height="30" as="geometry" />
        </mxCell>
        <mxCell id="ttJXTaofoa_NkVEZeppS-87" value="-String name" style="text;strokeColor=none;fillColor=none;align=left;verticalAlign=top;spacingLeft=4;spacingRight=4;overflow=hidden;rotatable=0;points=[[0,0.5],[1,0.5]];portConstraint=eastwest;" vertex="1" parent="ttJXTaofoa_NkVEZeppS-85">
          <mxGeometry y="60.11764705882353" width="315" height="30" as="geometry" />
        </mxCell>
        <mxCell id="ttJXTaofoa_NkVEZeppS-88" value="-String version" style="text;strokeColor=none;fillColor=none;align=left;verticalAlign=top;spacingLeft=4;spacingRight=4;overflow=hidden;rotatable=0;points=[[0,0.5],[1,0.5]];portConstraint=eastwest;" vertex="1" parent="ttJXTaofoa_NkVEZeppS-85">
          <mxGeometry y="90.11764705882354" width="315" height="30" as="geometry" />
        </mxCell>
        <mxCell id="ttJXTaofoa_NkVEZeppS-89" value="-List&lt;TemplateModelDTO&gt; models" style="text;strokeColor=none;fillColor=none;align=left;verticalAlign=top;spacingLeft=4;spacingRight=4;overflow=hidden;rotatable=0;points=[[0,0.5],[1,0.5]];portConstraint=eastwest;" vertex="1" parent="ttJXTaofoa_NkVEZeppS-85">
          <mxGeometry y="120.11764705882354" width="315" height="30" as="geometry" />
        </mxCell>
        <mxCell id="ttJXTaofoa_NkVEZeppS-90" value="-LocalDateTime createTime" style="text;strokeColor=none;fillColor=none;align=left;verticalAlign=top;spacingLeft=4;spacingRight=4;overflow=hidden;rotatable=0;points=[[0,0.5],[1,0.5]];portConstraint=eastwest;" vertex="1" parent="ttJXTaofoa_NkVEZeppS-85">
          <mxGeometry y="150.11764705882354" width="315" height="30" as="geometry" />
        </mxCell>
        <mxCell id="ttJXTaofoa_NkVEZeppS-91" value="-String creator" style="text;strokeColor=none;fillColor=none;align=left;verticalAlign=top;spacingLeft=4;spacingRight=4;overflow=hidden;rotatable=0;points=[[0,0.5],[1,0.5]];portConstraint=eastwest;" vertex="1" parent="ttJXTaofoa_NkVEZeppS-85">
          <mxGeometry y="180.11764705882354" width="315" height="30" as="geometry" />
        </mxCell>
        <mxCell id="ttJXTaofoa_NkVEZeppS-92" value="-Map&lt;String, Object&gt; attributes" style="text;strokeColor=none;fillColor=none;align=left;verticalAlign=top;spacingLeft=4;spacingRight=4;overflow=hidden;rotatable=0;points=[[0,0.5],[1,0.5]];portConstraint=eastwest;" vertex="1" parent="ttJXTaofoa_NkVEZeppS-85">
          <mxGeometry y="210.11764705882354" width="315" height="30" as="geometry" />
        </mxCell>
        <mxCell id="ttJXTaofoa_NkVEZeppS-93" style="line;strokeWidth=1;fillColor=none;align=left;verticalAlign=middle;spacingTop=-1;spacingLeft=3;spacingRight=3;rotatable=0;labelPosition=right;points=[];portConstraint=eastwest;strokeColor=inherit;" vertex="1" parent="ttJXTaofoa_NkVEZeppS-85">
          <mxGeometry y="240.11764705882354" width="315" height="15" as="geometry" />
        </mxCell>
        <mxCell id="ttJXTaofoa_NkVEZeppS-94" value="TemplateModelDTO" style="swimlane;fontStyle=1;align=center;verticalAlign=top;childLayout=stackLayout;horizontal=1;startSize=33.45454545454545;horizontalStack=0;resizeParent=1;resizeParentMax=0;resizeLast=0;collapsible=0;marginBottom=0;" vertex="1" parent="1">
          <mxGeometry x="2085" y="1432" width="335" height="182.45454545454544" as="geometry" />
        </mxCell>
        <mxCell id="ttJXTaofoa_NkVEZeppS-95" value="-String id" style="text;strokeColor=none;fillColor=none;align=left;verticalAlign=top;spacingLeft=4;spacingRight=4;overflow=hidden;rotatable=0;points=[[0,0.5],[1,0.5]];portConstraint=eastwest;" vertex="1" parent="ttJXTaofoa_NkVEZeppS-94">
          <mxGeometry y="33.45454545454545" width="335" height="33" as="geometry" />
        </mxCell>
        <mxCell id="ttJXTaofoa_NkVEZeppS-96" value="-ModelType type" style="text;strokeColor=none;fillColor=none;align=left;verticalAlign=top;spacingLeft=4;spacingRight=4;overflow=hidden;rotatable=0;points=[[0,0.5],[1,0.5]];portConstraint=eastwest;" vertex="1" parent="ttJXTaofoa_NkVEZeppS-94">
          <mxGeometry y="66.45454545454545" width="335" height="33" as="geometry" />
        </mxCell>
        <mxCell id="ttJXTaofoa_NkVEZeppS-97" value="-List&lt;TemplateTaskDTO&gt; tasks" style="text;strokeColor=none;fillColor=none;align=left;verticalAlign=top;spacingLeft=4;spacingRight=4;overflow=hidden;rotatable=0;points=[[0,0.5],[1,0.5]];portConstraint=eastwest;" vertex="1" parent="ttJXTaofoa_NkVEZeppS-94">
          <mxGeometry y="99.45454545454545" width="335" height="33" as="geometry" />
        </mxCell>
        <mxCell id="ttJXTaofoa_NkVEZeppS-98" value="-Map&lt;String, Object&gt; parameters" style="text;strokeColor=none;fillColor=none;align=left;verticalAlign=top;spacingLeft=4;spacingRight=4;overflow=hidden;rotatable=0;points=[[0,0.5],[1,0.5]];portConstraint=eastwest;" vertex="1" parent="ttJXTaofoa_NkVEZeppS-94">
          <mxGeometry y="132.45454545454544" width="335" height="33" as="geometry" />
        </mxCell>
        <mxCell id="ttJXTaofoa_NkVEZeppS-99" style="line;strokeWidth=1;fillColor=none;align=left;verticalAlign=middle;spacingTop=-1;spacingLeft=3;spacingRight=3;rotatable=0;labelPosition=right;points=[];portConstraint=eastwest;strokeColor=inherit;" vertex="1" parent="ttJXTaofoa_NkVEZeppS-94">
          <mxGeometry y="165.45454545454544" width="335" height="17" as="geometry" />
        </mxCell>
        <mxCell id="ttJXTaofoa_NkVEZeppS-100" value="TemplateTaskDTO" style="swimlane;fontStyle=1;align=center;verticalAlign=top;childLayout=stackLayout;horizontal=1;startSize=30.11764705882353;horizontalStack=0;resizeParent=1;resizeParentMax=0;resizeLast=0;collapsible=0;marginBottom=0;" vertex="1" parent="1">
          <mxGeometry x="2088" y="1710" width="329" height="255.11764705882354" as="geometry" />
        </mxCell>
        <mxCell id="ttJXTaofoa_NkVEZeppS-101" value="-String id" style="text;strokeColor=none;fillColor=none;align=left;verticalAlign=top;spacingLeft=4;spacingRight=4;overflow=hidden;rotatable=0;points=[[0,0.5],[1,0.5]];portConstraint=eastwest;" vertex="1" parent="ttJXTaofoa_NkVEZeppS-100">
          <mxGeometry y="30.11764705882353" width="329" height="30" as="geometry" />
        </mxCell>
        <mxCell id="ttJXTaofoa_NkVEZeppS-102" value="-String nameTemplate" style="text;strokeColor=none;fillColor=none;align=left;verticalAlign=top;spacingLeft=4;spacingRight=4;overflow=hidden;rotatable=0;points=[[0,0.5],[1,0.5]];portConstraint=eastwest;" vertex="1" parent="ttJXTaofoa_NkVEZeppS-100">
          <mxGeometry y="60.11764705882353" width="329" height="30" as="geometry" />
        </mxCell>
        <mxCell id="ttJXTaofoa_NkVEZeppS-103" value="-String descriptionTemplate" style="text;strokeColor=none;fillColor=none;align=left;verticalAlign=top;spacingLeft=4;spacingRight=4;overflow=hidden;rotatable=0;points=[[0,0.5],[1,0.5]];portConstraint=eastwest;" vertex="1" parent="ttJXTaofoa_NkVEZeppS-100">
          <mxGeometry y="90.11764705882354" width="329" height="30" as="geometry" />
        </mxCell>
        <mxCell id="ttJXTaofoa_NkVEZeppS-104" value="-String taskDefinitionId" style="text;strokeColor=none;fillColor=none;align=left;verticalAlign=top;spacingLeft=4;spacingRight=4;overflow=hidden;rotatable=0;points=[[0,0.5],[1,0.5]];portConstraint=eastwest;" vertex="1" parent="ttJXTaofoa_NkVEZeppS-100">
          <mxGeometry y="120.11764705882354" width="329" height="30" as="geometry" />
        </mxCell>
        <mxCell id="ttJXTaofoa_NkVEZeppS-105" value="-int priority" style="text;strokeColor=none;fillColor=none;align=left;verticalAlign=top;spacingLeft=4;spacingRight=4;overflow=hidden;rotatable=0;points=[[0,0.5],[1,0.5]];portConstraint=eastwest;" vertex="1" parent="ttJXTaofoa_NkVEZeppS-100">
          <mxGeometry y="150.11764705882354" width="329" height="30" as="geometry" />
        </mxCell>
        <mxCell id="ttJXTaofoa_NkVEZeppS-106" value="-List&lt;String&gt; predecessors" style="text;strokeColor=none;fillColor=none;align=left;verticalAlign=top;spacingLeft=4;spacingRight=4;overflow=hidden;rotatable=0;points=[[0,0.5],[1,0.5]];portConstraint=eastwest;" vertex="1" parent="ttJXTaofoa_NkVEZeppS-100">
          <mxGeometry y="180.11764705882354" width="329" height="30" as="geometry" />
        </mxCell>
        <mxCell id="ttJXTaofoa_NkVEZeppS-107" value="-Map&lt;String, Object&gt; parameters" style="text;strokeColor=none;fillColor=none;align=left;verticalAlign=top;spacingLeft=4;spacingRight=4;overflow=hidden;rotatable=0;points=[[0,0.5],[1,0.5]];portConstraint=eastwest;" vertex="1" parent="ttJXTaofoa_NkVEZeppS-100">
          <mxGeometry y="210.11764705882354" width="329" height="30" as="geometry" />
        </mxCell>
        <mxCell id="ttJXTaofoa_NkVEZeppS-108" style="line;strokeWidth=1;fillColor=none;align=left;verticalAlign=middle;spacingTop=-1;spacingLeft=3;spacingRight=3;rotatable=0;labelPosition=right;points=[];portConstraint=eastwest;strokeColor=inherit;" vertex="1" parent="ttJXTaofoa_NkVEZeppS-100">
          <mxGeometry y="240.11764705882354" width="329" height="15" as="geometry" />
        </mxCell>
        <mxCell id="ttJXTaofoa_NkVEZeppS-109" value="TaskDTO" style="swimlane;fontStyle=1;align=center;verticalAlign=top;childLayout=stackLayout;horizontal=1;startSize=28.52173913043478;horizontalStack=0;resizeParent=1;resizeParentMax=0;resizeLast=0;collapsible=0;marginBottom=0;" vertex="1" parent="1">
          <mxGeometry x="3221" y="382" width="261" height="332.52173913043475" as="geometry" />
        </mxCell>
        <mxCell id="ttJXTaofoa_NkVEZeppS-110" value="-String id" style="text;strokeColor=none;fillColor=none;align=left;verticalAlign=top;spacingLeft=4;spacingRight=4;overflow=hidden;rotatable=0;points=[[0,0.5],[1,0.5]];portConstraint=eastwest;" vertex="1" parent="ttJXTaofoa_NkVEZeppS-109">
          <mxGeometry y="28.52173913043478" width="261" height="29" as="geometry" />
        </mxCell>
        <mxCell id="ttJXTaofoa_NkVEZeppS-111" value="-String name" style="text;strokeColor=none;fillColor=none;align=left;verticalAlign=top;spacingLeft=4;spacingRight=4;overflow=hidden;rotatable=0;points=[[0,0.5],[1,0.5]];portConstraint=eastwest;" vertex="1" parent="ttJXTaofoa_NkVEZeppS-109">
          <mxGeometry y="57.52173913043478" width="261" height="29" as="geometry" />
        </mxCell>
        <mxCell id="ttJXTaofoa_NkVEZeppS-112" value="-String description" style="text;strokeColor=none;fillColor=none;align=left;verticalAlign=top;spacingLeft=4;spacingRight=4;overflow=hidden;rotatable=0;points=[[0,0.5],[1,0.5]];portConstraint=eastwest;" vertex="1" parent="ttJXTaofoa_NkVEZeppS-109">
          <mxGeometry y="86.52173913043478" width="261" height="29" as="geometry" />
        </mxCell>
        <mxCell id="ttJXTaofoa_NkVEZeppS-113" value="-TaskType taskType" style="text;strokeColor=none;fillColor=none;align=left;verticalAlign=top;spacingLeft=4;spacingRight=4;overflow=hidden;rotatable=0;points=[[0,0.5],[1,0.5]];portConstraint=eastwest;" vertex="1" parent="ttJXTaofoa_NkVEZeppS-109">
          <mxGeometry y="115.52173913043478" width="261" height="29" as="geometry" />
        </mxCell>
        <mxCell id="ttJXTaofoa_NkVEZeppS-114" value="-Set&lt;String&gt; requiredSkills" style="text;strokeColor=none;fillColor=none;align=left;verticalAlign=top;spacingLeft=4;spacingRight=4;overflow=hidden;rotatable=0;points=[[0,0.5],[1,0.5]];portConstraint=eastwest;" vertex="1" parent="ttJXTaofoa_NkVEZeppS-109">
          <mxGeometry y="144.52173913043478" width="261" height="29" as="geometry" />
        </mxCell>
        <mxCell id="ttJXTaofoa_NkVEZeppS-115" value="-Duration estimatedDuration" style="text;strokeColor=none;fillColor=none;align=left;verticalAlign=top;spacingLeft=4;spacingRight=4;overflow=hidden;rotatable=0;points=[[0,0.5],[1,0.5]];portConstraint=eastwest;" vertex="1" parent="ttJXTaofoa_NkVEZeppS-109">
          <mxGeometry y="173.52173913043478" width="261" height="29" as="geometry" />
        </mxCell>
        <mxCell id="ttJXTaofoa_NkVEZeppS-116" value="-String relatedModelId" style="text;strokeColor=none;fillColor=none;align=left;verticalAlign=top;spacingLeft=4;spacingRight=4;overflow=hidden;rotatable=0;points=[[0,0.5],[1,0.5]];portConstraint=eastwest;" vertex="1" parent="ttJXTaofoa_NkVEZeppS-109">
          <mxGeometry y="202.52173913043478" width="261" height="29" as="geometry" />
        </mxCell>
        <mxCell id="ttJXTaofoa_NkVEZeppS-117" value="-ModelType modelType" style="text;strokeColor=none;fillColor=none;align=left;verticalAlign=top;spacingLeft=4;spacingRight=4;overflow=hidden;rotatable=0;points=[[0,0.5],[1,0.5]];portConstraint=eastwest;" vertex="1" parent="ttJXTaofoa_NkVEZeppS-109">
          <mxGeometry y="231.52173913043478" width="261" height="29" as="geometry" />
        </mxCell>
        <mxCell id="ttJXTaofoa_NkVEZeppS-118" value="-Integer priority" style="text;strokeColor=none;fillColor=none;align=left;verticalAlign=top;spacingLeft=4;spacingRight=4;overflow=hidden;rotatable=0;points=[[0,0.5],[1,0.5]];portConstraint=eastwest;" vertex="1" parent="ttJXTaofoa_NkVEZeppS-109">
          <mxGeometry y="260.52173913043475" width="261" height="29" as="geometry" />
        </mxCell>
        <mxCell id="ttJXTaofoa_NkVEZeppS-119" value="-String templateTaskId" style="text;strokeColor=none;fillColor=none;align=left;verticalAlign=top;spacingLeft=4;spacingRight=4;overflow=hidden;rotatable=0;points=[[0,0.5],[1,0.5]];portConstraint=eastwest;" vertex="1" parent="ttJXTaofoa_NkVEZeppS-109">
          <mxGeometry y="289.52173913043475" width="261" height="29" as="geometry" />
        </mxCell>
        <mxCell id="ttJXTaofoa_NkVEZeppS-120" style="line;strokeWidth=1;fillColor=none;align=left;verticalAlign=middle;spacingTop=-1;spacingLeft=3;spacingRight=3;rotatable=0;labelPosition=right;points=[];portConstraint=eastwest;strokeColor=inherit;" vertex="1" parent="ttJXTaofoa_NkVEZeppS-109">
          <mxGeometry y="318.52173913043475" width="261" height="14" as="geometry" />
        </mxCell>
        <mxCell id="ttJXTaofoa_NkVEZeppS-121" value="TaskRelationshipDTO" style="swimlane;fontStyle=1;align=center;verticalAlign=top;childLayout=stackLayout;horizontal=1;startSize=33.45454545454545;horizontalStack=0;resizeParent=1;resizeParentMax=0;resizeLast=0;collapsible=0;marginBottom=0;" vertex="1" parent="1">
          <mxGeometry x="2906" y="454" width="264" height="182.45454545454544" as="geometry" />
        </mxCell>
        <mxCell id="ttJXTaofoa_NkVEZeppS-122" value="-String id" style="text;strokeColor=none;fillColor=none;align=left;verticalAlign=top;spacingLeft=4;spacingRight=4;overflow=hidden;rotatable=0;points=[[0,0.5],[1,0.5]];portConstraint=eastwest;" vertex="1" parent="ttJXTaofoa_NkVEZeppS-121">
          <mxGeometry y="33.45454545454545" width="264" height="33" as="geometry" />
        </mxCell>
        <mxCell id="ttJXTaofoa_NkVEZeppS-123" value="-String sourceTaskId" style="text;strokeColor=none;fillColor=none;align=left;verticalAlign=top;spacingLeft=4;spacingRight=4;overflow=hidden;rotatable=0;points=[[0,0.5],[1,0.5]];portConstraint=eastwest;" vertex="1" parent="ttJXTaofoa_NkVEZeppS-121">
          <mxGeometry y="66.45454545454545" width="264" height="33" as="geometry" />
        </mxCell>
        <mxCell id="ttJXTaofoa_NkVEZeppS-124" value="-String targetTaskId" style="text;strokeColor=none;fillColor=none;align=left;verticalAlign=top;spacingLeft=4;spacingRight=4;overflow=hidden;rotatable=0;points=[[0,0.5],[1,0.5]];portConstraint=eastwest;" vertex="1" parent="ttJXTaofoa_NkVEZeppS-121">
          <mxGeometry y="99.45454545454545" width="264" height="33" as="geometry" />
        </mxCell>
        <mxCell id="ttJXTaofoa_NkVEZeppS-125" value="-RelationshipType type" style="text;strokeColor=none;fillColor=none;align=left;verticalAlign=top;spacingLeft=4;spacingRight=4;overflow=hidden;rotatable=0;points=[[0,0.5],[1,0.5]];portConstraint=eastwest;" vertex="1" parent="ttJXTaofoa_NkVEZeppS-121">
          <mxGeometry y="132.45454545454544" width="264" height="33" as="geometry" />
        </mxCell>
        <mxCell id="ttJXTaofoa_NkVEZeppS-126" style="line;strokeWidth=1;fillColor=none;align=left;verticalAlign=middle;spacingTop=-1;spacingLeft=3;spacingRight=3;rotatable=0;labelPosition=right;points=[];portConstraint=eastwest;strokeColor=inherit;" vertex="1" parent="ttJXTaofoa_NkVEZeppS-121">
          <mxGeometry y="165.45454545454544" width="264" height="17" as="geometry" />
        </mxCell>
        <mxCell id="ttJXTaofoa_NkVEZeppS-127" value="TaskPlanDTO" style="swimlane;fontStyle=1;align=center;verticalAlign=top;childLayout=stackLayout;horizontal=1;startSize=33.45454545454545;horizontalStack=0;resizeParent=1;resizeParentMax=0;resizeLast=0;collapsible=0;marginBottom=0;" vertex="1" parent="1">
          <mxGeometry x="3122" y="80" width="362" height="182.45454545454544" as="geometry" />
        </mxCell>
        <mxCell id="ttJXTaofoa_NkVEZeppS-128" value="-String id" style="text;strokeColor=none;fillColor=none;align=left;verticalAlign=top;spacingLeft=4;spacingRight=4;overflow=hidden;rotatable=0;points=[[0,0.5],[1,0.5]];portConstraint=eastwest;" vertex="1" parent="ttJXTaofoa_NkVEZeppS-127">
          <mxGeometry y="33.45454545454545" width="362" height="33" as="geometry" />
        </mxCell>
        <mxCell id="ttJXTaofoa_NkVEZeppS-129" value="-List&lt;TaskDTO&gt; tasks" style="text;strokeColor=none;fillColor=none;align=left;verticalAlign=top;spacingLeft=4;spacingRight=4;overflow=hidden;rotatable=0;points=[[0,0.5],[1,0.5]];portConstraint=eastwest;" vertex="1" parent="ttJXTaofoa_NkVEZeppS-127">
          <mxGeometry y="66.45454545454545" width="362" height="33" as="geometry" />
        </mxCell>
        <mxCell id="ttJXTaofoa_NkVEZeppS-130" value="-List&lt;TaskRelationshipDTO&gt; relationships" style="text;strokeColor=none;fillColor=none;align=left;verticalAlign=top;spacingLeft=4;spacingRight=4;overflow=hidden;rotatable=0;points=[[0,0.5],[1,0.5]];portConstraint=eastwest;" vertex="1" parent="ttJXTaofoa_NkVEZeppS-127">
          <mxGeometry y="99.45454545454545" width="362" height="33" as="geometry" />
        </mxCell>
        <mxCell id="ttJXTaofoa_NkVEZeppS-131" value="-Duration estimatedDuration" style="text;strokeColor=none;fillColor=none;align=left;verticalAlign=top;spacingLeft=4;spacingRight=4;overflow=hidden;rotatable=0;points=[[0,0.5],[1,0.5]];portConstraint=eastwest;" vertex="1" parent="ttJXTaofoa_NkVEZeppS-127">
          <mxGeometry y="132.45454545454544" width="362" height="33" as="geometry" />
        </mxCell>
        <mxCell id="ttJXTaofoa_NkVEZeppS-132" style="line;strokeWidth=1;fillColor=none;align=left;verticalAlign=middle;spacingTop=-1;spacingLeft=3;spacingRight=3;rotatable=0;labelPosition=right;points=[];portConstraint=eastwest;strokeColor=inherit;" vertex="1" parent="ttJXTaofoa_NkVEZeppS-127">
          <mxGeometry y="165.45454545454544" width="362" height="17" as="geometry" />
        </mxCell>
        <mxCell id="ttJXTaofoa_NkVEZeppS-133" value="ModelDTO" style="swimlane;fontStyle=1;align=center;verticalAlign=top;childLayout=stackLayout;horizontal=1;startSize=32;horizontalStack=0;resizeParent=1;resizeParentMax=0;resizeLast=0;collapsible=0;marginBottom=0;" vertex="1" parent="1">
          <mxGeometry x="1536" y="1420" width="300" height="208" as="geometry" />
        </mxCell>
        <mxCell id="ttJXTaofoa_NkVEZeppS-134" value="-String id" style="text;strokeColor=none;fillColor=none;align=left;verticalAlign=top;spacingLeft=4;spacingRight=4;overflow=hidden;rotatable=0;points=[[0,0.5],[1,0.5]];portConstraint=eastwest;" vertex="1" parent="ttJXTaofoa_NkVEZeppS-133">
          <mxGeometry y="32" width="300" height="32" as="geometry" />
        </mxCell>
        <mxCell id="ttJXTaofoa_NkVEZeppS-135" value="-String name" style="text;strokeColor=none;fillColor=none;align=left;verticalAlign=top;spacingLeft=4;spacingRight=4;overflow=hidden;rotatable=0;points=[[0,0.5],[1,0.5]];portConstraint=eastwest;" vertex="1" parent="ttJXTaofoa_NkVEZeppS-133">
          <mxGeometry y="64" width="300" height="32" as="geometry" />
        </mxCell>
        <mxCell id="ttJXTaofoa_NkVEZeppS-136" value="-ModelType type" style="text;strokeColor=none;fillColor=none;align=left;verticalAlign=top;spacingLeft=4;spacingRight=4;overflow=hidden;rotatable=0;points=[[0,0.5],[1,0.5]];portConstraint=eastwest;" vertex="1" parent="ttJXTaofoa_NkVEZeppS-133">
          <mxGeometry y="96" width="300" height="32" as="geometry" />
        </mxCell>
        <mxCell id="ttJXTaofoa_NkVEZeppS-137" value="-String version" style="text;strokeColor=none;fillColor=none;align=left;verticalAlign=top;spacingLeft=4;spacingRight=4;overflow=hidden;rotatable=0;points=[[0,0.5],[1,0.5]];portConstraint=eastwest;" vertex="1" parent="ttJXTaofoa_NkVEZeppS-133">
          <mxGeometry y="128" width="300" height="32" as="geometry" />
        </mxCell>
        <mxCell id="ttJXTaofoa_NkVEZeppS-138" value="-Map&lt;String, Object&gt; parameters" style="text;strokeColor=none;fillColor=none;align=left;verticalAlign=top;spacingLeft=4;spacingRight=4;overflow=hidden;rotatable=0;points=[[0,0.5],[1,0.5]];portConstraint=eastwest;" vertex="1" parent="ttJXTaofoa_NkVEZeppS-133">
          <mxGeometry y="160" width="300" height="32" as="geometry" />
        </mxCell>
        <mxCell id="ttJXTaofoa_NkVEZeppS-139" style="line;strokeWidth=1;fillColor=none;align=left;verticalAlign=middle;spacingTop=-1;spacingLeft=3;spacingRight=3;rotatable=0;labelPosition=right;points=[];portConstraint=eastwest;strokeColor=inherit;" vertex="1" parent="ttJXTaofoa_NkVEZeppS-133">
          <mxGeometry y="192" width="300" height="16" as="geometry" />
        </mxCell>
        <mxCell id="ttJXTaofoa_NkVEZeppS-140" value="" style="curved=1;startArrow=block;startSize=16;startFill=0;endArrow=none;exitX=0.5;exitY=1;entryX=0.5;entryY=0;rounded=0;" edge="1" parent="1" source="ttJXTaofoa_NkVEZeppS-8" target="ttJXTaofoa_NkVEZeppS-11">
          <mxGeometry relative="1" as="geometry">
            <Array as="points" />
          </mxGeometry>
        </mxCell>
        <mxCell id="ttJXTaofoa_NkVEZeppS-141" value="" style="curved=1;startArrow=none;endArrow=open;endSize=12;exitX=0.73;exitY=1;entryX=0.5;entryY=0;rounded=0;" edge="1" parent="1" source="ttJXTaofoa_NkVEZeppS-11" target="ttJXTaofoa_NkVEZeppS-20">
          <mxGeometry relative="1" as="geometry">
            <Array as="points">
              <mxPoint x="2134" y="1057" />
            </Array>
          </mxGeometry>
        </mxCell>
        <mxCell id="ttJXTaofoa_NkVEZeppS-142" value="" style="curved=1;startArrow=none;endArrow=open;endSize=12;exitX=0.28;exitY=1;entryX=0.5;entryY=0;rounded=0;" edge="1" parent="1" source="ttJXTaofoa_NkVEZeppS-11" target="ttJXTaofoa_NkVEZeppS-26">
          <mxGeometry relative="1" as="geometry">
            <Array as="points">
              <mxPoint x="1761" y="1057" />
            </Array>
          </mxGeometry>
        </mxCell>
        <mxCell id="ttJXTaofoa_NkVEZeppS-143" value="" style="curved=1;startArrow=block;startSize=16;startFill=0;endArrow=none;exitX=0.5;exitY=1;entryX=0.5;entryY=0;rounded=0;" edge="1" parent="1" source="ttJXTaofoa_NkVEZeppS-32" target="ttJXTaofoa_NkVEZeppS-35">
          <mxGeometry relative="1" as="geometry">
            <Array as="points" />
          </mxGeometry>
        </mxCell>
        <mxCell id="ttJXTaofoa_NkVEZeppS-144" value="" style="curved=1;startArrow=none;endArrow=open;endSize=12;exitX=0.5;exitY=1;entryX=0.5;entryY=0;rounded=0;" edge="1" parent="1" source="ttJXTaofoa_NkVEZeppS-35" target="ttJXTaofoa_NkVEZeppS-43">
          <mxGeometry relative="1" as="geometry">
            <Array as="points" />
          </mxGeometry>
        </mxCell>
        <mxCell id="ttJXTaofoa_NkVEZeppS-145" value="" style="curved=1;startArrow=block;startSize=16;startFill=0;endArrow=none;exitX=0.5;exitY=1;entryX=0.5;entryY=0;rounded=0;" edge="1" parent="1" source="ttJXTaofoa_NkVEZeppS-43" target="ttJXTaofoa_NkVEZeppS-46">
          <mxGeometry relative="1" as="geometry">
            <Array as="points" />
          </mxGeometry>
        </mxCell>
        <mxCell id="ttJXTaofoa_NkVEZeppS-146" value="" style="curved=1;startArrow=block;startSize=16;startFill=0;endArrow=none;exitX=0.5;exitY=1;entryX=0.5;entryY=0;rounded=0;" edge="1" parent="1" source="ttJXTaofoa_NkVEZeppS-49" target="ttJXTaofoa_NkVEZeppS-56">
          <mxGeometry relative="1" as="geometry">
            <Array as="points" />
          </mxGeometry>
        </mxCell>
        <mxCell id="ttJXTaofoa_NkVEZeppS-147" value="" style="curved=1;startArrow=block;startSize=16;startFill=0;endArrow=none;exitX=0.5;exitY=1;entryX=0.5;entryY=0;rounded=0;" edge="1" parent="1" source="ttJXTaofoa_NkVEZeppS-65" target="ttJXTaofoa_NkVEZeppS-68">
          <mxGeometry relative="1" as="geometry">
            <Array as="points" />
          </mxGeometry>
        </mxCell>
        <mxCell id="ttJXTaofoa_NkVEZeppS-148" value="" style="curved=1;startArrow=none;endArrow=open;endSize=12;exitX=0.5;exitY=1;entryX=0.5;entryY=0;rounded=0;" edge="1" parent="1" source="ttJXTaofoa_NkVEZeppS-68" target="ttJXTaofoa_NkVEZeppS-49">
          <mxGeometry relative="1" as="geometry">
            <Array as="points" />
          </mxGeometry>
        </mxCell>
        <mxCell id="ttJXTaofoa_NkVEZeppS-149" value="" style="curved=1;startArrow=none;endArrow=open;endSize=12;exitX=1;exitY=0.69;entryX=0.5;entryY=0;rounded=0;" edge="1" parent="1" source="ttJXTaofoa_NkVEZeppS-74" target="ttJXTaofoa_NkVEZeppS-1">
          <mxGeometry relative="1" as="geometry">
            <Array as="points">
              <mxPoint x="2546" y="357" />
            </Array>
          </mxGeometry>
        </mxCell>
        <mxCell id="ttJXTaofoa_NkVEZeppS-150" value="" style="curved=1;startArrow=none;endArrow=open;endSize=12;exitX=0.99;exitY=1;entryX=0.5;entryY=0;rounded=0;" edge="1" parent="1" source="ttJXTaofoa_NkVEZeppS-74" target="ttJXTaofoa_NkVEZeppS-8">
          <mxGeometry relative="1" as="geometry">
            <Array as="points">
              <mxPoint x="1948" y="357" />
            </Array>
          </mxGeometry>
        </mxCell>
        <mxCell id="ttJXTaofoa_NkVEZeppS-151" value="" style="curved=1;startArrow=none;endArrow=open;endSize=12;exitX=0;exitY=0.87;entryX=0.5;entryY=0;rounded=0;" edge="1" parent="1" source="ttJXTaofoa_NkVEZeppS-74" target="ttJXTaofoa_NkVEZeppS-32">
          <mxGeometry relative="1" as="geometry">
            <Array as="points">
              <mxPoint x="1070" y="357" />
            </Array>
          </mxGeometry>
        </mxCell>
        <mxCell id="ttJXTaofoa_NkVEZeppS-152" value="" style="curved=1;startArrow=none;endArrow=open;endSize=12;exitX=0;exitY=0.65;entryX=0.5;entryY=0;rounded=0;" edge="1" parent="1" source="ttJXTaofoa_NkVEZeppS-74" target="ttJXTaofoa_NkVEZeppS-65">
          <mxGeometry relative="1" as="geometry">
            <Array as="points">
              <mxPoint x="353" y="357" />
            </Array>
          </mxGeometry>
        </mxCell>
        <mxCell id="ttJXTaofoa_NkVEZeppS-153" value="" style="curved=1;startArrow=diamondThin;startSize=14;startFill=1;endArrow=none;exitX=0.5;exitY=1;entryX=0.84;entryY=0;rounded=0;" edge="1" parent="1" source="ttJXTaofoa_NkVEZeppS-85" target="ttJXTaofoa_NkVEZeppS-94">
          <mxGeometry relative="1" as="geometry">
            <Array as="points">
              <mxPoint x="2439" y="1371" />
            </Array>
          </mxGeometry>
        </mxCell>
        <mxCell id="ttJXTaofoa_NkVEZeppS-154" value="" style="curved=1;startArrow=diamondThin;startSize=14;startFill=1;endArrow=none;exitX=0.5;exitY=1;entryX=0.5;entryY=0;rounded=0;" edge="1" parent="1" source="ttJXTaofoa_NkVEZeppS-94" target="ttJXTaofoa_NkVEZeppS-100">
          <mxGeometry relative="1" as="geometry">
            <Array as="points" />
          </mxGeometry>
        </mxCell>
        <mxCell id="ttJXTaofoa_NkVEZeppS-155" value="" style="curved=1;startArrow=diamondThin;startSize=14;startFill=0;endArrow=none;exitX=0.57;exitY=1;entryX=0.5;entryY=0;rounded=0;" edge="1" parent="1" source="ttJXTaofoa_NkVEZeppS-127" target="ttJXTaofoa_NkVEZeppS-109">
          <mxGeometry relative="1" as="geometry">
            <Array as="points">
              <mxPoint x="3351" y="357" />
            </Array>
          </mxGeometry>
        </mxCell>
        <mxCell id="ttJXTaofoa_NkVEZeppS-156" value="" style="curved=1;startArrow=diamondThin;startSize=14;startFill=0;endArrow=none;exitX=0.11;exitY=1;entryX=0.5;entryY=0;rounded=0;" edge="1" parent="1" source="ttJXTaofoa_NkVEZeppS-127" target="ttJXTaofoa_NkVEZeppS-121">
          <mxGeometry relative="1" as="geometry">
            <Array as="points">
              <mxPoint x="3038" y="357" />
            </Array>
          </mxGeometry>
        </mxCell>
        <mxCell id="ttJXTaofoa_NkVEZeppS-157" value="" style="curved=1;startArrow=none;endArrow=open;endSize=12;exitX=0.71;exitY=1;entryX=1;entryY=0.03;rounded=0;" edge="1" parent="1" source="ttJXTaofoa_NkVEZeppS-26" target="ttJXTaofoa_NkVEZeppS-133">
          <mxGeometry relative="1" as="geometry">
            <Array as="points">
              <mxPoint x="1916" y="1371" />
            </Array>
          </mxGeometry>
        </mxCell>
        <mxCell id="ttJXTaofoa_NkVEZeppS-158" value="" style="curved=1;startArrow=none;endArrow=open;endSize=12;exitX=0.07;exitY=1;entryX=0;entryY=0.33;rounded=0;" edge="1" parent="1" source="ttJXTaofoa_NkVEZeppS-26" target="ttJXTaofoa_NkVEZeppS-94">
          <mxGeometry relative="1" as="geometry">
            <Array as="points">
              <mxPoint x="1446" y="1371" />
            </Array>
          </mxGeometry>
        </mxCell>
      </root>
    </mxGraphModel>
  </diagram>
</mxfile>
